<svg width="65" height="65" viewBox="0 0 65 65" fill="none" xmlns="http://www.w3.org/2000/svg">
<path d="M28.8707 31.2671C22.003 28.3749 18.2148 29.9205 16.2874 32.504M16.2874 32.504C14.3334 29.8675 13.3853 27.3939 14.5547 25.677C17.6006 21.205 25.3679 31.8882 28.8707 37.7888L14.5547 37.7888C14.594 36.1851 15.0689 34.1372 16.2874 32.504ZM16.2874 32.504C19.423 36.7349 25.1488 41.3851 28.8707 44L28.8707 19.3106C27.4875 25.984 23.0344 37.9656 16.2874 32.504Z" stroke="black" stroke-opacity="0.3" stroke-width="2"/>
<path d="M53.3907 31.5776L28.8707 31.5776M28.8707 31.5776L28.8707 19C16.147 23.4703 12.469 26.4534 11.661 28.472C7.83245 38.0373 21.5682 42.706 28.8707 43.8447L28.8707 31.5776Z" stroke="#888888" stroke-width="4"/>
<ellipse cx="53.3908" cy="31.5776" rx="0.621118" ry="0.609194" transform="rotate(90 53.3908 31.5776)" fill="#888888"/>
<circle cx="32.5" cy="32.5" r="32" fill="#C4C4C4" fill-opacity="0.3" stroke="#F4F4F4"/>
</svg>
