<svg width="65" height="65" viewBox="0 0 65 65" fill="none" xmlns="http://www.w3.org/2000/svg">
<path d="M36.1292 31.2671C42.9969 28.3749 46.785 29.9205 48.7125 32.504M48.7125 32.504C50.6665 29.8675 51.6146 27.3939 50.4452 25.677C47.3992 21.205 39.632 31.8882 36.1292 37.7888L50.4452 37.7888C50.4059 36.1851 49.931 34.1372 48.7125 32.504ZM48.7125 32.504C45.5769 36.7349 39.851 41.3851 36.1292 44L36.1292 19.3106C37.5123 25.984 41.9655 37.9656 48.7125 32.504Z" stroke="black" stroke-opacity="0.3" stroke-width="2"/>
<path d="M11.6091 31.5776L36.1292 31.5776M36.1292 31.5776L36.1292 19C48.8529 23.4703 52.5309 26.4534 53.3389 28.472C57.1674 38.0373 43.4317 42.706 36.1292 43.8447L36.1292 31.5776Z" stroke="#888888" stroke-width="4"/>
<ellipse rx="0.621118" ry="0.609194" transform="matrix(4.37114e-08 1 1 -4.37114e-08 11.6092 31.5776)" fill="#888888"/>
<circle r="32" transform="matrix(-1 0 0 1 32.5 32.5)" fill="#C4C4C4" fill-opacity="0.3" stroke="#F4F4F4"/>
</svg>
