<svg width="86" height="144" viewBox="0 0 86 144" fill="none" xmlns="http://www.w3.org/2000/svg">
<path d="M42.5 82.5C33.1871 105.047 38.1641 117.484 46.483 123.812M46.483 123.812C37.9935 130.226 30.0283 133.339 24.5 129.5C10.1 119.5 44.5 94 63.5 82.5V129.5C58.3359 129.371 51.7417 127.812 46.483 123.812ZM46.483 123.812C60.1065 113.517 75.0801 94.7191 83.5 82.5H4C25.4886 87.041 64.0693 101.661 46.483 123.812Z" stroke="#F8FFF4" stroke-width="2"/>
<path d="M43.5 2V82.5M43.5 82.5H3C17.3945 124.272 27 136.347 33.5 139C64.3 151.569 79.3333 106.474 83 82.5H43.5Z" stroke="#FECDAA" stroke-width="4"/>
<circle cx="43.5" cy="2" r="2" fill="#FECDAA"/>
</svg>
