<svg width="24" height="67" viewBox="0 0 24 67" fill="none" xmlns="http://www.w3.org/2000/svg">
<path d="M20.777 11.9V47H12.227V11.9H20.777Z" fill="#DEDFF5"/>
<path d="M5.384 45.1555L11 45.1555L11 46.5235L5.384 46.5235L5.384 45.1555ZM11 39.1402L11 40.5082L7.536 42.7962L11 42.7962L11 44.1642L5.384 44.1642L5.384 42.7962L8.864 40.5082L5.384 40.5082L5.384 39.1402L11 39.1402ZM5.384 34.4925L6.48 34.4925L6.48 36.7805L7.664 36.7805L7.664 35.0685L8.728 35.0685L8.728 36.7805L11 36.7805L11 38.1485L5.384 38.1485L5.384 34.4925ZM11.056 31.1175C11.056 31.6455 10.9333 32.1309 10.688 32.5735C10.4427 33.0109 10.1013 33.3602 9.664 33.6215C9.22133 33.8775 8.72533 34.0055 8.176 34.0055C7.62667 34.0055 7.13333 33.8775 6.696 33.6215C6.25867 33.3602 5.91733 33.0109 5.672 32.5735C5.42667 32.1309 5.304 31.6455 5.304 31.1175C5.304 30.5895 5.42667 30.1069 5.672 29.6695C5.91733 29.2269 6.25867 28.8802 6.696 28.6295C7.13333 28.3735 7.62667 28.2455 8.176 28.2455C8.72533 28.2455 9.22133 28.3735 9.664 28.6295C10.1013 28.8855 10.4427 29.2322 10.688 29.6695C10.9333 30.1069 11.056 30.5895 11.056 31.1175ZM9.808 31.1175C9.808 30.6695 9.65867 30.3122 9.36 30.0455C9.06133 29.7735 8.66667 29.6375 8.176 29.6375C7.68 29.6375 7.28533 29.7735 6.992 30.0455C6.69333 30.3122 6.544 30.6695 6.544 31.1175C6.544 31.5709 6.69067 31.9335 6.984 32.2055C7.27733 32.4722 7.67467 32.6055 8.176 32.6055C8.672 32.6055 9.06933 32.4722 9.368 32.2055C9.66133 31.9335 9.808 31.5709 9.808 31.1175Z" fill="#DEDFF5"/>
</svg>
