<svg width="495" height="313" viewBox="0 0 495 313" fill="none" xmlns="http://www.w3.org/2000/svg">
<g clip-path="url(#clip0)">
<rect width="494.44" height="312.821" fill="white"/>
<rect width="158" height="313" fill="white"/>
<rect x="164" width="164.66" height="313" fill="black" fill-opacity="0.5"/>
<rect x="-1" width="164.66" height="313" fill="black" fill-opacity="0.1"/>
<path d="M91.3896 163.33C91.3571 163.415 91.3066 163.555 91.2383 163.75C91.1732 163.945 91.0951 164.178 91.0039 164.448C90.9128 164.718 90.8118 165.018 90.7012 165.347C90.5938 165.672 90.4814 166.011 90.3643 166.362C90.2503 166.711 90.1348 167.062 90.0176 167.417C89.9036 167.769 89.793 168.105 89.6855 168.428C89.5814 168.75 89.4854 169.046 89.3975 169.316C89.3096 169.587 89.2363 169.814 89.1777 170C89.1387 170.007 89.0964 170.011 89.0508 170.015C88.9727 170.024 88.8652 170.029 88.7285 170.029C88.6634 170.029 88.5934 170.026 88.5186 170.02C88.4469 170.016 88.3737 170.01 88.2988 170L88.2695 169.951C88.3086 169.88 88.3672 169.738 88.4453 169.526C88.5267 169.315 88.6195 169.061 88.7236 168.765C88.8311 168.468 88.9466 168.143 89.0703 167.788C89.194 167.43 89.3177 167.067 89.4414 166.699L88.25 166.719C88.1426 167.041 88.0352 167.362 87.9277 167.681C87.8236 168 87.7243 168.304 87.6299 168.594C87.5387 168.88 87.4541 169.146 87.376 169.39C87.2979 169.631 87.2327 169.834 87.1807 170C87.1416 170.007 87.0993 170.011 87.0537 170.015C87.0146 170.021 86.9674 170.024 86.9121 170.024C86.8568 170.028 86.7965 170.029 86.7314 170.029C86.5915 170.029 86.4482 170.02 86.3018 170L86.2676 169.951C86.3066 169.88 86.3652 169.741 86.4434 169.536C86.5215 169.328 86.6143 169.079 86.7217 168.789C86.8258 168.496 86.9382 168.174 87.0586 167.822C87.179 167.471 87.2995 167.114 87.4199 166.753C87.5436 166.388 87.6624 166.032 87.7764 165.684C87.8903 165.335 87.9928 165.018 88.084 164.731C88.1751 164.445 88.2484 164.204 88.3037 164.009C88.3623 163.813 88.3949 163.687 88.4014 163.628C88.4014 163.602 88.3965 163.579 88.3867 163.56C88.377 163.537 88.3639 163.521 88.3477 163.511V163.452C88.4355 163.426 88.5169 163.405 88.5918 163.389C88.6667 163.369 88.7415 163.354 88.8164 163.345C88.8945 163.332 88.9775 163.322 89.0654 163.315C89.1533 163.309 89.2542 163.304 89.3682 163.301L89.3877 163.33C89.3551 163.415 89.3047 163.558 89.2363 163.76C89.168 163.958 89.0866 164.198 88.9922 164.478C88.8978 164.754 88.7936 165.06 88.6797 165.396C88.569 165.731 88.4551 166.076 88.3379 166.431L89.5391 166.411C89.6497 166.079 89.7539 165.757 89.8516 165.444C89.9525 165.132 90.042 164.85 90.1201 164.6C90.1982 164.349 90.2617 164.137 90.3105 163.965C90.3626 163.792 90.3919 163.68 90.3984 163.628C90.3984 163.573 90.3822 163.534 90.3496 163.511V163.452C90.4375 163.426 90.5189 163.405 90.5938 163.389C90.6686 163.369 90.7435 163.354 90.8184 163.345C90.8965 163.332 90.9795 163.322 91.0674 163.315C91.1553 163.309 91.2562 163.304 91.3701 163.301L91.3896 163.33ZM93.9189 163.188C94.0361 163.188 94.1517 163.215 94.2656 163.267C94.3828 163.319 94.487 163.394 94.5781 163.491C94.6693 163.589 94.7425 163.709 94.7979 163.853C94.8532 163.993 94.8809 164.152 94.8809 164.331C94.8809 164.526 94.8581 164.748 94.8125 164.995C94.7702 165.239 94.7148 165.492 94.6465 165.752C94.5781 166.012 94.5016 166.271 94.417 166.528C94.3356 166.785 94.2559 167.021 94.1777 167.236C94.0996 167.448 94.0296 167.63 93.9678 167.783C93.9092 167.936 93.8669 168.039 93.8408 168.091C93.6976 168.397 93.543 168.675 93.377 168.926C93.2142 169.173 93.0384 169.385 92.8496 169.561C92.6641 169.736 92.4639 169.873 92.249 169.971C92.0374 170.065 91.8112 170.112 91.5703 170.112C91.4531 170.112 91.3311 170.085 91.2041 170.029C91.0804 169.977 90.9665 169.902 90.8623 169.805C90.7614 169.704 90.6784 169.582 90.6133 169.438C90.5449 169.295 90.5107 169.136 90.5107 168.96C90.5107 168.765 90.5335 168.545 90.5791 168.301C90.6214 168.053 90.6768 167.799 90.7451 167.539C90.8135 167.279 90.8883 167.021 90.9697 166.768C91.0544 166.51 91.1357 166.276 91.2139 166.064C91.292 165.853 91.3604 165.672 91.4189 165.522C91.4808 165.369 91.5247 165.265 91.5508 165.21C91.694 164.904 91.8519 164.627 92.0244 164.38C92.2002 164.129 92.3874 163.916 92.5859 163.74C92.7878 163.564 92.9993 163.429 93.2207 163.335C93.4453 163.237 93.6781 163.188 93.9189 163.188ZM91.6924 169.731C91.8096 169.731 91.9333 169.663 92.0635 169.526C92.1937 169.39 92.3239 169.207 92.4541 168.979C92.5876 168.752 92.7178 168.49 92.8447 168.193C92.9749 167.894 93.097 167.583 93.2109 167.261C93.3281 166.935 93.4355 166.608 93.5332 166.279C93.6341 165.951 93.7204 165.643 93.792 165.356C93.8636 165.07 93.9189 164.814 93.958 164.59C94.0003 164.362 94.0215 164.189 94.0215 164.072C94.0215 163.919 93.9938 163.8 93.9385 163.716C93.8831 163.631 93.8034 163.589 93.6992 163.589C93.5788 163.589 93.4535 163.657 93.3232 163.794C93.193 163.931 93.0612 164.113 92.9277 164.341C92.7975 164.565 92.6689 164.827 92.542 165.127C92.415 165.423 92.293 165.734 92.1758 166.06C92.0586 166.382 91.9512 166.707 91.8535 167.036C91.7559 167.362 91.6712 167.668 91.5996 167.954C91.528 168.237 91.471 168.491 91.4287 168.716C91.3896 168.94 91.3701 169.111 91.3701 169.229C91.3701 169.385 91.3962 169.508 91.4482 169.6C91.5003 169.688 91.5817 169.731 91.6924 169.731ZM97.8838 163.188C98.001 163.188 98.1165 163.215 98.2305 163.267C98.3477 163.319 98.4518 163.394 98.543 163.491C98.6341 163.589 98.7074 163.709 98.7627 163.853C98.818 163.993 98.8457 164.152 98.8457 164.331C98.8457 164.526 98.8229 164.748 98.7773 164.995C98.735 165.239 98.6797 165.492 98.6113 165.752C98.543 166.012 98.4665 166.271 98.3818 166.528C98.3005 166.785 98.2207 167.021 98.1426 167.236C98.0645 167.448 97.9945 167.63 97.9326 167.783C97.874 167.936 97.8317 168.039 97.8057 168.091C97.6624 168.397 97.5078 168.675 97.3418 168.926C97.179 169.173 97.0033 169.385 96.8145 169.561C96.6289 169.736 96.4287 169.873 96.2139 169.971C96.0023 170.065 95.776 170.112 95.5352 170.112C95.418 170.112 95.2959 170.085 95.1689 170.029C95.0452 169.977 94.9313 169.902 94.8271 169.805C94.7262 169.704 94.6432 169.582 94.5781 169.438C94.5098 169.295 94.4756 169.136 94.4756 168.96C94.4756 168.765 94.4984 168.545 94.5439 168.301C94.5863 168.053 94.6416 167.799 94.71 167.539C94.7783 167.279 94.8532 167.021 94.9346 166.768C95.0192 166.51 95.1006 166.276 95.1787 166.064C95.2568 165.853 95.3252 165.672 95.3838 165.522C95.4456 165.369 95.4896 165.265 95.5156 165.21C95.6589 164.904 95.8167 164.627 95.9893 164.38C96.165 164.129 96.3522 163.916 96.5508 163.74C96.7526 163.564 96.9642 163.429 97.1855 163.335C97.4102 163.237 97.6429 163.188 97.8838 163.188ZM95.6572 169.731C95.7744 169.731 95.8981 169.663 96.0283 169.526C96.1585 169.39 96.2887 169.207 96.4189 168.979C96.5524 168.752 96.6826 168.49 96.8096 168.193C96.9398 167.894 97.0618 167.583 97.1758 167.261C97.293 166.935 97.4004 166.608 97.498 166.279C97.599 165.951 97.6852 165.643 97.7568 165.356C97.8285 165.07 97.8838 164.814 97.9229 164.59C97.9652 164.362 97.9863 164.189 97.9863 164.072C97.9863 163.919 97.9587 163.8 97.9033 163.716C97.848 163.631 97.7682 163.589 97.6641 163.589C97.5436 163.589 97.4183 163.657 97.2881 163.794C97.1579 163.931 97.026 164.113 96.8926 164.341C96.7624 164.565 96.6338 164.827 96.5068 165.127C96.3799 165.423 96.2578 165.734 96.1406 166.06C96.0234 166.382 95.916 166.707 95.8184 167.036C95.7207 167.362 95.6361 167.668 95.5645 167.954C95.4928 168.237 95.4359 168.491 95.3936 168.716C95.3545 168.94 95.335 169.111 95.335 169.229C95.335 169.385 95.361 169.508 95.4131 169.6C95.4652 169.688 95.5465 169.731 95.6572 169.731Z" fill="black"/>
<path d="M259.39 163.33C259.357 163.415 259.307 163.555 259.238 163.75C259.173 163.945 259.095 164.178 259.004 164.448C258.913 164.718 258.812 165.018 258.701 165.347C258.594 165.672 258.481 166.011 258.364 166.362C258.25 166.711 258.135 167.062 258.018 167.417C257.904 167.769 257.793 168.105 257.686 168.428C257.581 168.75 257.485 169.046 257.397 169.316C257.31 169.587 257.236 169.814 257.178 170C257.139 170.007 257.096 170.011 257.051 170.015C256.973 170.024 256.865 170.029 256.729 170.029C256.663 170.029 256.593 170.026 256.519 170.02C256.447 170.016 256.374 170.01 256.299 170L256.27 169.951C256.309 169.88 256.367 169.738 256.445 169.526C256.527 169.315 256.619 169.061 256.724 168.765C256.831 168.468 256.947 168.143 257.07 167.788C257.194 167.43 257.318 167.067 257.441 166.699L256.25 166.719C256.143 167.041 256.035 167.362 255.928 167.681C255.824 168 255.724 168.304 255.63 168.594C255.539 168.88 255.454 169.146 255.376 169.39C255.298 169.631 255.233 169.834 255.181 170C255.142 170.007 255.099 170.011 255.054 170.015C255.015 170.021 254.967 170.024 254.912 170.024C254.857 170.028 254.797 170.029 254.731 170.029C254.591 170.029 254.448 170.02 254.302 170L254.268 169.951C254.307 169.88 254.365 169.741 254.443 169.536C254.521 169.328 254.614 169.079 254.722 168.789C254.826 168.496 254.938 168.174 255.059 167.822C255.179 167.471 255.299 167.114 255.42 166.753C255.544 166.388 255.662 166.032 255.776 165.684C255.89 165.335 255.993 165.018 256.084 164.731C256.175 164.445 256.248 164.204 256.304 164.009C256.362 163.813 256.395 163.687 256.401 163.628C256.401 163.602 256.396 163.579 256.387 163.56C256.377 163.537 256.364 163.521 256.348 163.511V163.452C256.436 163.426 256.517 163.405 256.592 163.389C256.667 163.369 256.742 163.354 256.816 163.345C256.895 163.332 256.978 163.322 257.065 163.315C257.153 163.309 257.254 163.304 257.368 163.301L257.388 163.33C257.355 163.415 257.305 163.558 257.236 163.76C257.168 163.958 257.087 164.198 256.992 164.478C256.898 164.754 256.794 165.06 256.68 165.396C256.569 165.731 256.455 166.076 256.338 166.431L257.539 166.411C257.65 166.079 257.754 165.757 257.852 165.444C257.952 165.132 258.042 164.85 258.12 164.6C258.198 164.349 258.262 164.137 258.311 163.965C258.363 163.792 258.392 163.68 258.398 163.628C258.398 163.573 258.382 163.534 258.35 163.511V163.452C258.438 163.426 258.519 163.405 258.594 163.389C258.669 163.369 258.743 163.354 258.818 163.345C258.896 163.332 258.979 163.322 259.067 163.315C259.155 163.309 259.256 163.304 259.37 163.301L259.39 163.33ZM261.919 163.188C262.036 163.188 262.152 163.215 262.266 163.267C262.383 163.319 262.487 163.394 262.578 163.491C262.669 163.589 262.743 163.709 262.798 163.853C262.853 163.993 262.881 164.152 262.881 164.331C262.881 164.526 262.858 164.748 262.812 164.995C262.77 165.239 262.715 165.492 262.646 165.752C262.578 166.012 262.502 166.271 262.417 166.528C262.336 166.785 262.256 167.021 262.178 167.236C262.1 167.448 262.03 167.63 261.968 167.783C261.909 167.936 261.867 168.039 261.841 168.091C261.698 168.397 261.543 168.675 261.377 168.926C261.214 169.173 261.038 169.385 260.85 169.561C260.664 169.736 260.464 169.873 260.249 169.971C260.037 170.065 259.811 170.112 259.57 170.112C259.453 170.112 259.331 170.085 259.204 170.029C259.08 169.977 258.966 169.902 258.862 169.805C258.761 169.704 258.678 169.582 258.613 169.438C258.545 169.295 258.511 169.136 258.511 168.96C258.511 168.765 258.534 168.545 258.579 168.301C258.621 168.053 258.677 167.799 258.745 167.539C258.813 167.279 258.888 167.021 258.97 166.768C259.054 166.51 259.136 166.276 259.214 166.064C259.292 165.853 259.36 165.672 259.419 165.522C259.481 165.369 259.525 165.265 259.551 165.21C259.694 164.904 259.852 164.627 260.024 164.38C260.2 164.129 260.387 163.916 260.586 163.74C260.788 163.564 260.999 163.429 261.221 163.335C261.445 163.237 261.678 163.188 261.919 163.188ZM259.692 169.731C259.81 169.731 259.933 169.663 260.063 169.526C260.194 169.39 260.324 169.207 260.454 168.979C260.588 168.752 260.718 168.49 260.845 168.193C260.975 167.894 261.097 167.583 261.211 167.261C261.328 166.935 261.436 166.608 261.533 166.279C261.634 165.951 261.72 165.643 261.792 165.356C261.864 165.07 261.919 164.814 261.958 164.59C262 164.362 262.021 164.189 262.021 164.072C262.021 163.919 261.994 163.8 261.938 163.716C261.883 163.631 261.803 163.589 261.699 163.589C261.579 163.589 261.453 163.657 261.323 163.794C261.193 163.931 261.061 164.113 260.928 164.341C260.798 164.565 260.669 164.827 260.542 165.127C260.415 165.423 260.293 165.734 260.176 166.06C260.059 166.382 259.951 166.707 259.854 167.036C259.756 167.362 259.671 167.668 259.6 167.954C259.528 168.237 259.471 168.491 259.429 168.716C259.39 168.94 259.37 169.111 259.37 169.229C259.37 169.385 259.396 169.508 259.448 169.6C259.5 169.688 259.582 169.731 259.692 169.731ZM265.884 163.188C266.001 163.188 266.117 163.215 266.23 163.267C266.348 163.319 266.452 163.394 266.543 163.491C266.634 163.589 266.707 163.709 266.763 163.853C266.818 163.993 266.846 164.152 266.846 164.331C266.846 164.526 266.823 164.748 266.777 164.995C266.735 165.239 266.68 165.492 266.611 165.752C266.543 166.012 266.466 166.271 266.382 166.528C266.3 166.785 266.221 167.021 266.143 167.236C266.064 167.448 265.994 167.63 265.933 167.783C265.874 167.936 265.832 168.039 265.806 168.091C265.662 168.397 265.508 168.675 265.342 168.926C265.179 169.173 265.003 169.385 264.814 169.561C264.629 169.736 264.429 169.873 264.214 169.971C264.002 170.065 263.776 170.112 263.535 170.112C263.418 170.112 263.296 170.085 263.169 170.029C263.045 169.977 262.931 169.902 262.827 169.805C262.726 169.704 262.643 169.582 262.578 169.438C262.51 169.295 262.476 169.136 262.476 168.96C262.476 168.765 262.498 168.545 262.544 168.301C262.586 168.053 262.642 167.799 262.71 167.539C262.778 167.279 262.853 167.021 262.935 166.768C263.019 166.51 263.101 166.276 263.179 166.064C263.257 165.853 263.325 165.672 263.384 165.522C263.446 165.369 263.49 165.265 263.516 165.21C263.659 164.904 263.817 164.627 263.989 164.38C264.165 164.129 264.352 163.916 264.551 163.74C264.753 163.564 264.964 163.429 265.186 163.335C265.41 163.237 265.643 163.188 265.884 163.188ZM263.657 169.731C263.774 169.731 263.898 169.663 264.028 169.526C264.159 169.39 264.289 169.207 264.419 168.979C264.552 168.752 264.683 168.49 264.81 168.193C264.94 167.894 265.062 167.583 265.176 167.261C265.293 166.935 265.4 166.608 265.498 166.279C265.599 165.951 265.685 165.643 265.757 165.356C265.828 165.07 265.884 164.814 265.923 164.59C265.965 164.362 265.986 164.189 265.986 164.072C265.986 163.919 265.959 163.8 265.903 163.716C265.848 163.631 265.768 163.589 265.664 163.589C265.544 163.589 265.418 163.657 265.288 163.794C265.158 163.931 265.026 164.113 264.893 164.341C264.762 164.565 264.634 164.827 264.507 165.127C264.38 165.423 264.258 165.734 264.141 166.06C264.023 166.382 263.916 166.707 263.818 167.036C263.721 167.362 263.636 167.668 263.564 167.954C263.493 168.237 263.436 168.491 263.394 168.716C263.354 168.94 263.335 169.111 263.335 169.229C263.335 169.385 263.361 169.508 263.413 169.6C263.465 169.688 263.547 169.731 263.657 169.731Z" fill="white"/>
<path d="M64.1672 177.881L61.8499 179.364L59.7374 176.062L62.0548 174.579C62.9059 175.301 63.7139 175.417 64.479 174.927C65.0318 174.574 65.1661 174.175 64.8819 173.731C64.7335 173.499 64.5141 173.368 64.2237 173.338C63.9091 173.303 63.3238 173.35 62.468 173.48C61.3858 173.637 60.5589 173.703 59.9872 173.68C59.456 173.665 58.9175 173.519 58.3717 173.242C57.8291 172.97 57.3872 172.568 57.0462 172.035C56.4336 171.077 56.2662 170.13 56.5439 169.194C56.8167 168.262 57.4047 167.507 58.308 166.929C59.2112 166.351 60.1404 166.118 61.0957 166.23L60.6883 165.594L63.0205 164.102L64.8961 167.033L62.5936 168.507C61.7944 167.877 61.037 167.791 60.3213 168.249C59.8178 168.571 59.7035 168.947 59.9782 169.376C60.1108 169.584 60.2818 169.693 60.4913 169.705C60.699 169.726 61.2988 169.679 62.2908 169.566C63.6247 169.422 64.5361 169.357 65.0251 169.372C65.2705 169.375 65.5483 169.423 65.8586 169.517C66.1707 169.602 66.4555 169.716 66.7129 169.857C67.2938 170.167 67.7642 170.603 68.1242 171.166C68.6768 172.03 68.8233 172.965 68.5637 173.973C68.3104 174.991 67.6952 175.812 66.7179 176.437C65.8097 177.018 64.8158 177.275 63.7362 177.208L64.1672 177.881ZM70.9411 162.718L71.7948 166.188L73.6383 165.009L70.9411 162.718ZM74.8877 171.023L70.8083 173.633L69.231 171.167L70.0158 170.665L68.5142 164.061L67.685 164.592L66.1078 162.127L73.5114 157.39L75.0886 159.855L74.2594 160.386L79.6627 164.494L80.4179 164.011L81.9951 166.476L76.6201 169.915L75.1755 167.657L76.0787 167.079L74.8575 166.034L72.2218 167.72L72.599 169.305L73.4431 168.765L74.8877 171.023ZM92.5009 159.755L82.6985 166.026L81.1213 163.561L82.0467 162.969L78.6128 157.601L77.6873 158.193L76.1101 155.728L81.9959 151.962L83.5732 154.427L82.5959 155.053L86.0298 160.42L88.4656 158.862L87.4094 157.211L89.8674 155.639L92.5009 159.755ZM103.258 152.873L93.4337 159.158L91.8565 156.693L92.6561 156.181L89.2221 150.814L88.4077 151.335L86.8305 148.869L96.6699 142.574L98.7776 145.869L96.0753 147.598L95.5448 146.769L93.2053 148.265L94.2189 149.85L96.2549 148.547L97.5953 150.642L95.5593 151.945L96.6392 153.633L98.9788 152.136L98.4483 151.307L101.151 149.578L103.258 152.873Z" fill="black"/>
<path d="M232.167 177.881L229.85 179.364L227.737 176.062L230.055 174.579C230.906 175.301 231.714 175.417 232.479 174.927C233.032 174.574 233.166 174.175 232.882 173.731C232.733 173.499 232.514 173.368 232.224 173.338C231.909 173.303 231.324 173.35 230.468 173.48C229.386 173.637 228.559 173.703 227.987 173.68C227.456 173.665 226.917 173.519 226.372 173.242C225.829 172.97 225.387 172.568 225.046 172.035C224.434 171.077 224.266 170.13 224.544 169.194C224.817 168.262 225.405 167.507 226.308 166.929C227.211 166.351 228.14 166.118 229.096 166.23L228.688 165.594L231.02 164.102L232.896 167.033L230.594 168.507C229.794 167.877 229.037 167.791 228.321 168.249C227.818 168.571 227.703 168.947 227.978 169.376C228.111 169.584 228.282 169.693 228.491 169.705C228.699 169.726 229.299 169.679 230.291 169.566C231.625 169.422 232.536 169.357 233.025 169.372C233.27 169.375 233.548 169.423 233.859 169.517C234.171 169.602 234.455 169.716 234.713 169.857C235.294 170.167 235.764 170.603 236.124 171.166C236.677 172.03 236.823 172.965 236.564 173.973C236.31 174.991 235.695 175.812 234.718 176.437C233.81 177.018 232.816 177.275 231.736 177.208L232.167 177.881ZM238.941 162.718L239.795 166.188L241.638 165.009L238.941 162.718ZM242.888 171.023L238.808 173.633L237.231 171.167L238.016 170.665L236.514 164.061L235.685 164.592L234.108 162.127L241.511 157.39L243.089 159.855L242.259 160.386L247.663 164.494L248.418 164.011L249.995 166.476L244.62 169.915L243.176 167.657L244.079 167.079L242.857 166.034L240.222 167.72L240.599 169.305L241.443 168.765L242.888 171.023ZM260.501 159.755L250.698 166.026L249.121 163.561L250.047 162.969L246.613 157.601L245.687 158.193L244.11 155.728L249.996 151.962L251.573 154.427L250.596 155.053L254.03 160.42L256.466 158.862L255.409 157.211L257.867 155.639L260.501 159.755ZM271.258 152.873L261.434 159.158L259.856 156.693L260.656 156.181L257.222 150.814L256.408 151.335L254.831 148.869L264.67 142.574L266.778 145.869L264.075 147.598L263.545 146.769L261.205 148.265L262.219 149.85L264.255 148.547L265.595 150.642L263.559 151.945L264.639 153.633L266.979 152.136L266.448 151.307L269.151 149.578L271.258 152.873Z" fill="white"/>
<path d="M104.466 203.647V147.218C91.9854 126.714 70.4477 91.8582 84.1405 116.463C97.8334 141.067 86.9932 147.218 79.8615 147.218" stroke="black" stroke-width="2"/>
<path d="M80.0112 147.218H77.6043C70.4726 147.218 59.6325 141.067 73.3253 116.463C87.0181 91.8582 65.4804 126.714 53 147.218V203.647H105" stroke="black" stroke-width="2"/>
<path d="M272.466 203.647V147.218C259.985 126.714 238.448 91.8582 252.141 116.463C265.833 141.067 254.993 147.218 247.862 147.218" stroke="white" stroke-width="2"/>
<path d="M248.011 147.218H245.604C238.473 147.218 227.632 141.067 241.325 116.463C255.018 91.8582 233.48 126.714 221 147.218V203.647H273" stroke="white" stroke-width="2"/>
<path d="M440.466 203.647V147.218C427.985 126.714 406.448 91.8582 420.141 116.463C433.833 141.067 422.993 147.218 415.862 147.218" stroke="black" stroke-width="2"/>
<path d="M416.011 147.218H413.604C406.473 147.218 395.632 141.067 409.325 116.463C423.018 91.8582 401.48 126.714 389 147.218V203.647H441" stroke="black" stroke-width="2"/>
<path d="M427.39 163.33C427.357 163.415 427.307 163.555 427.238 163.75C427.173 163.945 427.095 164.178 427.004 164.448C426.913 164.718 426.812 165.018 426.701 165.347C426.594 165.672 426.481 166.011 426.364 166.362C426.25 166.711 426.135 167.062 426.018 167.417C425.904 167.769 425.793 168.105 425.686 168.428C425.581 168.75 425.485 169.046 425.397 169.316C425.31 169.587 425.236 169.814 425.178 170C425.139 170.007 425.096 170.011 425.051 170.015C424.973 170.024 424.865 170.029 424.729 170.029C424.663 170.029 424.593 170.026 424.519 170.02C424.447 170.016 424.374 170.01 424.299 170L424.27 169.951C424.309 169.88 424.367 169.738 424.445 169.526C424.527 169.315 424.619 169.061 424.724 168.765C424.831 168.468 424.947 168.143 425.07 167.788C425.194 167.43 425.318 167.067 425.441 166.699L424.25 166.719C424.143 167.041 424.035 167.362 423.928 167.681C423.824 168 423.724 168.304 423.63 168.594C423.539 168.88 423.454 169.146 423.376 169.39C423.298 169.631 423.233 169.834 423.181 170C423.142 170.007 423.099 170.011 423.054 170.015C423.015 170.021 422.967 170.024 422.912 170.024C422.857 170.028 422.797 170.029 422.731 170.029C422.591 170.029 422.448 170.02 422.302 170L422.268 169.951C422.307 169.88 422.365 169.741 422.443 169.536C422.521 169.328 422.614 169.079 422.722 168.789C422.826 168.496 422.938 168.174 423.059 167.822C423.179 167.471 423.299 167.114 423.42 166.753C423.544 166.388 423.662 166.032 423.776 165.684C423.89 165.335 423.993 165.018 424.084 164.731C424.175 164.445 424.248 164.204 424.304 164.009C424.362 163.813 424.395 163.687 424.401 163.628C424.401 163.602 424.396 163.579 424.387 163.56C424.377 163.537 424.364 163.521 424.348 163.511V163.452C424.436 163.426 424.517 163.405 424.592 163.389C424.667 163.369 424.742 163.354 424.816 163.345C424.895 163.332 424.978 163.322 425.065 163.315C425.153 163.309 425.254 163.304 425.368 163.301L425.388 163.33C425.355 163.415 425.305 163.558 425.236 163.76C425.168 163.958 425.087 164.198 424.992 164.478C424.898 164.754 424.794 165.06 424.68 165.396C424.569 165.731 424.455 166.076 424.338 166.431L425.539 166.411C425.65 166.079 425.754 165.757 425.852 165.444C425.952 165.132 426.042 164.85 426.12 164.6C426.198 164.349 426.262 164.137 426.311 163.965C426.363 163.792 426.392 163.68 426.398 163.628C426.398 163.573 426.382 163.534 426.35 163.511V163.452C426.438 163.426 426.519 163.405 426.594 163.389C426.669 163.369 426.743 163.354 426.818 163.345C426.896 163.332 426.979 163.322 427.067 163.315C427.155 163.309 427.256 163.304 427.37 163.301L427.39 163.33ZM429.919 163.188C430.036 163.188 430.152 163.215 430.266 163.267C430.383 163.319 430.487 163.394 430.578 163.491C430.669 163.589 430.743 163.709 430.798 163.853C430.853 163.993 430.881 164.152 430.881 164.331C430.881 164.526 430.858 164.748 430.812 164.995C430.77 165.239 430.715 165.492 430.646 165.752C430.578 166.012 430.502 166.271 430.417 166.528C430.336 166.785 430.256 167.021 430.178 167.236C430.1 167.448 430.03 167.63 429.968 167.783C429.909 167.936 429.867 168.039 429.841 168.091C429.698 168.397 429.543 168.675 429.377 168.926C429.214 169.173 429.038 169.385 428.85 169.561C428.664 169.736 428.464 169.873 428.249 169.971C428.037 170.065 427.811 170.112 427.57 170.112C427.453 170.112 427.331 170.085 427.204 170.029C427.08 169.977 426.966 169.902 426.862 169.805C426.761 169.704 426.678 169.582 426.613 169.438C426.545 169.295 426.511 169.136 426.511 168.96C426.511 168.765 426.534 168.545 426.579 168.301C426.621 168.053 426.677 167.799 426.745 167.539C426.813 167.279 426.888 167.021 426.97 166.768C427.054 166.51 427.136 166.276 427.214 166.064C427.292 165.853 427.36 165.672 427.419 165.522C427.481 165.369 427.525 165.265 427.551 165.21C427.694 164.904 427.852 164.627 428.024 164.38C428.2 164.129 428.387 163.916 428.586 163.74C428.788 163.564 428.999 163.429 429.221 163.335C429.445 163.237 429.678 163.188 429.919 163.188ZM427.692 169.731C427.81 169.731 427.933 169.663 428.063 169.526C428.194 169.39 428.324 169.207 428.454 168.979C428.588 168.752 428.718 168.49 428.845 168.193C428.975 167.894 429.097 167.583 429.211 167.261C429.328 166.935 429.436 166.608 429.533 166.279C429.634 165.951 429.72 165.643 429.792 165.356C429.864 165.07 429.919 164.814 429.958 164.59C430 164.362 430.021 164.189 430.021 164.072C430.021 163.919 429.994 163.8 429.938 163.716C429.883 163.631 429.803 163.589 429.699 163.589C429.579 163.589 429.453 163.657 429.323 163.794C429.193 163.931 429.061 164.113 428.928 164.341C428.798 164.565 428.669 164.827 428.542 165.127C428.415 165.423 428.293 165.734 428.176 166.06C428.059 166.382 427.951 166.707 427.854 167.036C427.756 167.362 427.671 167.668 427.6 167.954C427.528 168.237 427.471 168.491 427.429 168.716C427.39 168.94 427.37 169.111 427.37 169.229C427.37 169.385 427.396 169.508 427.448 169.6C427.5 169.688 427.582 169.731 427.692 169.731ZM433.884 163.188C434.001 163.188 434.117 163.215 434.23 163.267C434.348 163.319 434.452 163.394 434.543 163.491C434.634 163.589 434.707 163.709 434.763 163.853C434.818 163.993 434.846 164.152 434.846 164.331C434.846 164.526 434.823 164.748 434.777 164.995C434.735 165.239 434.68 165.492 434.611 165.752C434.543 166.012 434.466 166.271 434.382 166.528C434.3 166.785 434.221 167.021 434.143 167.236C434.064 167.448 433.994 167.63 433.933 167.783C433.874 167.936 433.832 168.039 433.806 168.091C433.662 168.397 433.508 168.675 433.342 168.926C433.179 169.173 433.003 169.385 432.814 169.561C432.629 169.736 432.429 169.873 432.214 169.971C432.002 170.065 431.776 170.112 431.535 170.112C431.418 170.112 431.296 170.085 431.169 170.029C431.045 169.977 430.931 169.902 430.827 169.805C430.726 169.704 430.643 169.582 430.578 169.438C430.51 169.295 430.476 169.136 430.476 168.96C430.476 168.765 430.498 168.545 430.544 168.301C430.586 168.053 430.642 167.799 430.71 167.539C430.778 167.279 430.853 167.021 430.935 166.768C431.019 166.51 431.101 166.276 431.179 166.064C431.257 165.853 431.325 165.672 431.384 165.522C431.446 165.369 431.49 165.265 431.516 165.21C431.659 164.904 431.817 164.627 431.989 164.38C432.165 164.129 432.352 163.916 432.551 163.74C432.753 163.564 432.964 163.429 433.186 163.335C433.41 163.237 433.643 163.188 433.884 163.188ZM431.657 169.731C431.774 169.731 431.898 169.663 432.028 169.526C432.159 169.39 432.289 169.207 432.419 168.979C432.552 168.752 432.683 168.49 432.81 168.193C432.94 167.894 433.062 167.583 433.176 167.261C433.293 166.935 433.4 166.608 433.498 166.279C433.599 165.951 433.685 165.643 433.757 165.356C433.828 165.07 433.884 164.814 433.923 164.59C433.965 164.362 433.986 164.189 433.986 164.072C433.986 163.919 433.959 163.8 433.903 163.716C433.848 163.631 433.768 163.589 433.664 163.589C433.544 163.589 433.418 163.657 433.288 163.794C433.158 163.931 433.026 164.113 432.893 164.341C432.762 164.565 432.634 164.827 432.507 165.127C432.38 165.423 432.258 165.734 432.141 166.06C432.023 166.382 431.916 166.707 431.818 167.036C431.721 167.362 431.636 167.668 431.564 167.954C431.493 168.237 431.436 168.491 431.394 168.716C431.354 168.94 431.335 169.111 431.335 169.229C431.335 169.385 431.361 169.508 431.413 169.6C431.465 169.688 431.547 169.731 431.657 169.731Z" fill="#FF3434"/>
<path d="M400.167 177.881L397.85 179.364L395.737 176.062L398.055 174.579C398.906 175.301 399.714 175.417 400.479 174.927C401.032 174.574 401.166 174.175 400.882 173.731C400.733 173.499 400.514 173.368 400.224 173.338C399.909 173.303 399.324 173.35 398.468 173.48C397.386 173.637 396.559 173.703 395.987 173.68C395.456 173.665 394.917 173.519 394.372 173.242C393.829 172.97 393.387 172.568 393.046 172.035C392.434 171.077 392.266 170.13 392.544 169.194C392.817 168.262 393.405 167.507 394.308 166.929C395.211 166.351 396.14 166.118 397.096 166.23L396.688 165.594L399.02 164.102L400.896 167.033L398.594 168.507C397.794 167.877 397.037 167.791 396.321 168.249C395.818 168.571 395.703 168.947 395.978 169.376C396.111 169.584 396.282 169.693 396.491 169.705C396.699 169.726 397.299 169.679 398.291 169.566C399.625 169.422 400.536 169.357 401.025 169.372C401.27 169.375 401.548 169.423 401.859 169.517C402.171 169.602 402.455 169.716 402.713 169.857C403.294 170.167 403.764 170.603 404.124 171.166C404.677 172.03 404.823 172.965 404.564 173.973C404.31 174.991 403.695 175.812 402.718 176.437C401.81 177.018 400.816 177.275 399.736 177.208L400.167 177.881ZM406.941 162.718L407.795 166.188L409.638 165.009L406.941 162.718ZM410.888 171.023L406.808 173.633L405.231 171.167L406.016 170.665L404.514 164.061L403.685 164.592L402.108 162.127L409.511 157.39L411.089 159.855L410.259 160.386L415.663 164.494L416.418 164.011L417.995 166.476L412.62 169.915L411.176 167.657L412.079 167.079L410.857 166.034L408.222 167.72L408.599 169.305L409.443 168.765L410.888 171.023ZM428.501 159.755L418.698 166.026L417.121 163.561L418.047 162.969L414.613 157.601L413.687 158.193L412.11 155.728L417.996 151.962L419.573 154.427L418.596 155.053L422.03 160.42L424.466 158.862L423.409 157.211L425.867 155.639L428.501 159.755ZM439.258 152.873L429.434 159.158L427.856 156.693L428.656 156.181L425.222 150.814L424.408 151.335L422.831 148.869L432.67 142.574L434.778 145.869L432.075 147.598L431.545 146.769L429.205 148.265L430.219 149.85L432.255 148.547L433.595 150.642L431.559 151.945L432.639 153.633L434.979 152.136L434.448 151.307L437.151 149.578L439.258 152.873Z" fill="#FF3434"/>
</g>
<defs>
<clipPath id="clip0">
<rect width="494.44" height="312.821" fill="white"/>
</clipPath>
</defs>
</svg>
