<svg width="495" height="313" viewBox="0 0 495 313" fill="none" xmlns="http://www.w3.org/2000/svg">
<rect width="494.44" height="312.821" fill="white"/>
<path d="M297.22 245.821V140.321C273.887 101.988 233.62 36.8215 259.22 82.8215C284.82 128.821 264.553 140.321 251.22 140.321" stroke="black" stroke-width="2"/>
<path d="M251.5 140.321H247C233.667 140.321 213.4 128.821 239 82.8215C264.6 36.8215 224.333 101.988 201 140.321V245.821H298.219" stroke="black" stroke-width="2"/>
<path d="M221.511 200.893L217.391 203.528L213.636 197.658L217.755 195.022C219.268 196.305 220.705 196.511 222.065 195.641C223.048 195.012 223.287 194.303 222.781 193.514C222.518 193.101 222.128 192.868 221.611 192.815C221.052 192.753 220.012 192.837 218.49 193.068C216.566 193.347 215.096 193.465 214.08 193.423C213.135 193.397 212.178 193.137 211.208 192.645C210.243 192.162 209.458 191.446 208.851 190.498C207.762 188.796 207.465 187.113 207.958 185.449C208.443 183.791 209.489 182.448 211.094 181.421C212.7 180.394 214.352 179.98 216.05 180.18L215.326 179.048L219.472 176.395L222.807 181.607L218.713 184.226C217.293 183.107 215.946 182.955 214.674 183.769C213.779 184.341 213.575 185.009 214.064 185.773C214.299 186.141 214.604 186.336 214.976 186.358C215.345 186.393 216.411 186.311 218.175 186.11C220.546 185.854 222.167 185.739 223.036 185.764C223.472 185.769 223.966 185.855 224.518 186.022C225.073 186.174 225.579 186.376 226.036 186.627C227.069 187.178 227.906 187.954 228.545 188.954C229.528 190.49 229.788 192.153 229.327 193.945C228.877 195.754 227.783 197.214 226.045 198.326C224.431 199.358 222.664 199.815 220.745 199.695L221.511 200.893ZM233.553 173.935L235.071 180.105L238.348 178.008L233.553 173.935ZM240.569 188.7L233.317 193.34L230.513 188.957L231.908 188.064L229.239 176.324L227.765 177.267L224.961 172.884L238.123 164.464L240.927 168.847L239.453 169.79L249.058 177.092L250.401 176.233L253.205 180.616L243.649 186.73L241.081 182.715L242.687 181.688L240.516 179.831L235.83 182.828L236.501 185.645L238.001 184.686L240.569 188.7ZM271.882 168.668L254.455 179.816L251.651 175.433L253.297 174.381L247.192 164.838L245.547 165.891L242.743 161.508L253.206 154.814L256.01 159.197L254.273 160.308L260.378 169.851L264.708 167.08L262.83 164.145L267.2 161.35L271.882 168.668ZM291.006 156.433L273.54 167.607L270.736 163.224L272.158 162.315L266.053 152.772L264.605 153.698L261.801 149.315L279.293 138.125L283.04 143.982L278.236 147.055L277.293 145.581L273.134 148.242L274.936 151.059L278.556 148.743L280.939 152.468L277.319 154.783L279.239 157.784L283.398 155.124L282.455 153.649L287.259 150.576L291.006 156.433Z" fill="#FF3434"/>
<path d="M270.657 176.326C270.586 176.512 270.475 176.82 270.324 177.25C270.181 177.68 270.009 178.192 269.809 178.786C269.608 179.381 269.386 180.039 269.143 180.763C268.906 181.479 268.659 182.224 268.401 182.997C268.151 183.763 267.896 184.537 267.639 185.317C267.388 186.091 267.145 186.832 266.908 187.541C266.679 188.25 266.468 188.902 266.274 189.496C266.081 190.09 265.92 190.592 265.791 191C265.705 191.014 265.612 191.025 265.512 191.032C265.34 191.054 265.104 191.064 264.803 191.064C264.66 191.064 264.506 191.057 264.341 191.043C264.183 191.036 264.022 191.021 263.857 191L263.793 190.893C263.879 190.735 264.008 190.424 264.18 189.958C264.359 189.493 264.563 188.934 264.792 188.282C265.028 187.631 265.283 186.914 265.555 186.134C265.827 185.346 266.099 184.548 266.371 183.738L263.75 183.781C263.514 184.49 263.277 185.196 263.041 185.897C262.812 186.599 262.593 187.269 262.386 187.906C262.185 188.536 261.999 189.12 261.827 189.657C261.655 190.187 261.512 190.635 261.397 191C261.312 191.014 261.218 191.025 261.118 191.032C261.032 191.047 260.928 191.054 260.807 191.054C260.685 191.061 260.552 191.064 260.409 191.064C260.101 191.064 259.786 191.043 259.464 191L259.389 190.893C259.475 190.735 259.604 190.431 259.775 189.979C259.947 189.521 260.151 188.973 260.388 188.336C260.617 187.691 260.864 186.982 261.129 186.209C261.394 185.436 261.659 184.651 261.924 183.856C262.196 183.054 262.457 182.27 262.708 181.504C262.959 180.738 263.184 180.039 263.385 179.409C263.585 178.779 263.746 178.249 263.868 177.819C263.997 177.39 264.069 177.11 264.083 176.981C264.083 176.924 264.072 176.874 264.051 176.831C264.029 176.781 264.001 176.745 263.965 176.724V176.595C264.158 176.537 264.337 176.491 264.502 176.455C264.667 176.412 264.831 176.38 264.996 176.358C265.168 176.33 265.351 176.308 265.544 176.294C265.737 176.28 265.959 176.269 266.21 176.262L266.253 176.326C266.181 176.512 266.07 176.827 265.92 177.271C265.77 177.708 265.59 178.235 265.383 178.851C265.175 179.459 264.946 180.132 264.695 180.87C264.452 181.608 264.201 182.367 263.943 183.147L266.586 183.104C266.829 182.374 267.059 181.665 267.273 180.978C267.495 180.29 267.692 179.671 267.864 179.119C268.036 178.568 268.176 178.102 268.283 177.723C268.398 177.343 268.462 177.096 268.477 176.981C268.477 176.86 268.441 176.774 268.369 176.724V176.595C268.562 176.537 268.742 176.491 268.906 176.455C269.071 176.412 269.236 176.38 269.4 176.358C269.572 176.33 269.755 176.308 269.948 176.294C270.142 176.28 270.364 176.269 270.614 176.262L270.657 176.326ZM276.222 176.015C276.479 176.015 276.734 176.072 276.984 176.187C277.242 176.301 277.471 176.466 277.672 176.681C277.872 176.896 278.034 177.16 278.155 177.476C278.277 177.784 278.338 178.134 278.338 178.528C278.338 178.958 278.288 179.445 278.188 179.989C278.094 180.526 277.973 181.081 277.822 181.654C277.672 182.227 277.504 182.797 277.317 183.362C277.138 183.928 276.963 184.447 276.791 184.92C276.619 185.385 276.465 185.786 276.329 186.123C276.2 186.46 276.107 186.685 276.05 186.8C275.735 187.473 275.395 188.085 275.029 188.637C274.671 189.181 274.285 189.646 273.869 190.033C273.461 190.42 273.021 190.721 272.548 190.936C272.082 191.143 271.585 191.247 271.055 191.247C270.797 191.247 270.528 191.186 270.249 191.064C269.977 190.95 269.726 190.785 269.497 190.57C269.275 190.348 269.092 190.08 268.949 189.765C268.799 189.45 268.724 189.099 268.724 188.712C268.724 188.282 268.774 187.799 268.874 187.262C268.967 186.717 269.089 186.159 269.239 185.586C269.39 185.013 269.554 184.447 269.733 183.889C269.92 183.323 270.099 182.807 270.271 182.342C270.442 181.876 270.593 181.479 270.722 181.149C270.858 180.813 270.954 180.584 271.012 180.462C271.327 179.789 271.674 179.18 272.054 178.636C272.44 178.084 272.852 177.615 273.289 177.229C273.733 176.842 274.199 176.545 274.686 176.337C275.18 176.122 275.692 176.015 276.222 176.015ZM271.323 190.409C271.581 190.409 271.853 190.259 272.14 189.958C272.426 189.657 272.713 189.256 272.999 188.755C273.293 188.254 273.579 187.677 273.858 187.025C274.145 186.367 274.413 185.683 274.664 184.974C274.922 184.257 275.158 183.538 275.373 182.814C275.595 182.091 275.785 181.414 275.942 180.784C276.1 180.154 276.222 179.592 276.308 179.098C276.401 178.596 276.447 178.217 276.447 177.959C276.447 177.622 276.386 177.361 276.265 177.175C276.143 176.989 275.967 176.896 275.738 176.896C275.473 176.896 275.198 177.046 274.911 177.347C274.625 177.647 274.335 178.049 274.041 178.55C273.755 179.044 273.472 179.62 273.192 180.279C272.913 180.931 272.645 181.615 272.387 182.331C272.129 183.04 271.893 183.756 271.678 184.479C271.463 185.196 271.277 185.869 271.119 186.499C270.962 187.122 270.836 187.681 270.743 188.175C270.657 188.669 270.614 189.045 270.614 189.303C270.614 189.646 270.672 189.919 270.786 190.119C270.901 190.312 271.08 190.409 271.323 190.409ZM284.944 176.015C285.202 176.015 285.456 176.072 285.707 176.187C285.965 176.301 286.194 176.466 286.395 176.681C286.595 176.896 286.756 177.16 286.878 177.476C287 177.784 287.061 178.134 287.061 178.528C287.061 178.958 287.01 179.445 286.91 179.989C286.817 180.526 286.695 181.081 286.545 181.654C286.395 182.227 286.226 182.797 286.04 183.362C285.861 183.928 285.686 184.447 285.514 184.92C285.342 185.385 285.188 185.786 285.052 186.123C284.923 186.46 284.83 186.685 284.772 186.8C284.457 187.473 284.117 188.085 283.752 188.637C283.394 189.181 283.007 189.646 282.592 190.033C282.184 190.42 281.743 190.721 281.271 190.936C280.805 191.143 280.307 191.247 279.777 191.247C279.52 191.247 279.251 191.186 278.972 191.064C278.7 190.95 278.449 190.785 278.22 190.57C277.998 190.348 277.815 190.08 277.672 189.765C277.521 189.45 277.446 189.099 277.446 188.712C277.446 188.282 277.496 187.799 277.597 187.262C277.69 186.717 277.812 186.159 277.962 185.586C278.112 185.013 278.277 184.447 278.456 183.889C278.642 183.323 278.821 182.807 278.993 182.342C279.165 181.876 279.315 181.479 279.444 181.149C279.58 180.813 279.677 180.584 279.734 180.462C280.049 179.789 280.397 179.18 280.776 178.636C281.163 178.084 281.575 177.615 282.012 177.229C282.456 176.842 282.921 176.545 283.408 176.337C283.902 176.122 284.414 176.015 284.944 176.015ZM280.046 190.409C280.304 190.409 280.576 190.259 280.862 189.958C281.149 189.657 281.435 189.256 281.722 188.755C282.015 188.254 282.302 187.677 282.581 187.025C282.868 186.367 283.136 185.683 283.387 184.974C283.645 184.257 283.881 183.538 284.096 182.814C284.318 182.091 284.507 181.414 284.665 180.784C284.823 180.154 284.944 179.592 285.03 179.098C285.123 178.596 285.17 178.217 285.17 177.959C285.17 177.622 285.109 177.361 284.987 177.175C284.866 176.989 284.69 176.896 284.461 176.896C284.196 176.896 283.92 177.046 283.634 177.347C283.347 177.647 283.057 178.049 282.764 178.55C282.477 179.044 282.194 179.62 281.915 180.279C281.636 180.931 281.367 181.615 281.109 182.331C280.852 183.04 280.615 183.756 280.4 184.479C280.186 185.196 279.999 185.869 279.842 186.499C279.684 187.122 279.559 187.681 279.466 188.175C279.38 188.669 279.337 189.045 279.337 189.303C279.337 189.646 279.394 189.919 279.509 190.119C279.623 190.312 279.802 190.409 280.046 190.409Z" fill="#FF3434"/>
</svg>
