<svg width="595" height="842" viewBox="0 0 595 842" fill="none" xmlns="http://www.w3.org/2000/svg">
<rect width="595" height="842" fill="white"/>
<g filter="url(#filter0_d)">
<circle cx="258.5" cy="424.5" r="42.5" fill="white"/>
<path fill-rule="evenodd" clip-rule="evenodd" d="M250.856 382.685C231.032 386.286 216 403.637 216 424.5C216 445.364 231.035 462.717 250.861 466.315C251.154 464.786 251.408 463.276 251.635 461.926L251.635 461.926L251.648 461.85L251.649 461.844C251.983 459.858 252.266 458.174 252.535 457.368C253.028 455.893 254.239 453.356 255.375 451.206C255.945 450.126 256.503 449.131 256.951 448.403C257.174 448.04 257.376 447.733 257.542 447.513C257.621 447.409 257.701 447.312 257.778 447.234C257.769 447.159 257.755 447.062 257.736 446.945C257.671 446.546 257.555 445.961 257.4 445.224C257.183 444.194 256.893 442.887 256.567 441.413C256.427 440.78 256.28 440.117 256.129 439.433C255.132 434.904 253.962 429.421 253.476 425.657C253.469 425.647 253.459 425.633 253.445 425.614C253.388 425.54 253.304 425.444 253.182 425.309L253.145 425.268L253.145 425.268C252.914 425.009 252.599 424.659 252.273 424.211C251.581 423.259 250.84 421.869 250.603 419.871C250.271 417.068 251.07 414.787 252.476 413.073C252.402 412.966 252.328 412.843 252.256 412.715C252.009 412.277 251.713 411.645 251.406 410.945C250.791 409.538 250.112 407.795 249.674 406.62C249.176 405.284 249.464 403.825 249.869 402.278C249.949 401.972 250.035 401.661 250.122 401.342C250.474 400.059 250.858 398.657 251.055 397.048C250.106 395.826 249.624 394.278 249.451 392.606C249.271 390.855 249.427 388.934 249.77 387.034C250.038 385.555 250.421 384.077 250.856 382.685ZM255.823 466.917C254.48 466.833 253.154 466.687 251.848 466.482C252.141 464.949 252.395 463.439 252.62 462.101L252.634 462.016C252.977 459.975 253.246 458.396 253.484 457.685C253.948 456.294 255.125 453.819 256.259 451.673C256.575 451.074 256.886 450.504 257.174 449.996C256.873 451.523 256.598 453.322 256.453 455.172C256.228 458.039 256.31 461.096 257.142 463.447C257.111 463.49 257.082 463.535 257.056 463.579C256.89 463.855 256.705 464.304 256.511 464.837C256.302 465.412 256.068 466.127 255.823 466.917ZM256.854 466.968C257.142 466.979 257.431 466.987 257.72 466.993C257.711 466.889 257.702 466.788 257.692 466.687C257.633 466.049 257.571 465.48 257.511 465.016C257.491 465.069 257.471 465.123 257.451 465.179C257.27 465.677 257.068 466.288 256.854 466.968ZM263.271 466.735C261.777 466.902 260.261 466.991 258.725 466.999C258.713 466.862 258.7 466.727 258.688 466.595C258.621 465.867 258.549 465.221 258.478 464.71C258.41 464.215 258.338 463.804 258.261 463.574C258.253 463.548 258.241 463.515 258.224 463.479C257.338 461.305 257.214 458.251 257.45 455.25C257.682 452.289 258.257 449.455 258.723 447.722C258.765 447.641 258.778 447.567 258.783 447.533C258.796 447.452 258.793 447.368 258.789 447.306C258.781 447.172 258.757 446.992 258.723 446.783C258.653 446.361 258.534 445.756 258.378 445.018C258.16 443.983 257.869 442.668 257.542 441.191L257.542 441.19C257.402 440.559 257.255 439.898 257.105 439.218C256.101 434.657 254.936 429.19 254.461 425.478C254.434 425.271 254.31 425.1 254.24 425.008C254.155 424.896 254.041 424.769 253.927 424.641L253.894 424.604C253.661 424.345 253.377 424.029 253.082 423.623C252.47 422.78 251.809 421.548 251.596 419.753C251.273 417.025 252.132 414.896 253.558 413.352C253.778 413.115 254.01 412.874 254.25 412.625L254.251 412.625C255.085 411.761 256.009 410.804 256.778 409.575C257.591 408.274 257.906 407.037 257.754 405.753C257.605 404.488 257.01 403.231 256.113 401.873C255.108 400.352 253.683 398.643 251.977 396.598L251.96 396.577C251.089 395.533 250.614 394.132 250.446 392.504C250.278 390.876 250.421 389.056 250.754 387.212C251.045 385.604 251.478 383.993 251.965 382.499C253.942 382.194 255.965 382.025 258.022 382.002C258.017 382.059 258.012 382.116 258.006 382.173C257.991 382.34 257.976 382.506 257.961 382.67L257.96 382.676C257.859 383.78 257.766 384.792 257.765 385.44C257.765 385.641 257.833 385.826 257.912 385.977C257.992 386.134 258.103 386.29 258.228 386.444C258.478 386.75 258.826 387.088 259.231 387.441C260.042 388.15 261.141 388.971 262.299 389.8C263.127 390.391 263.983 390.985 264.796 391.55L264.796 391.55C266.288 392.585 267.635 393.521 268.403 394.16C269.46 395.04 269.833 396.73 269.512 398.17C269.354 398.879 269.039 399.467 268.619 399.835C268.215 400.189 267.686 400.366 267.003 400.227C265.623 399.945 265.114 398.995 264.446 397.513L264.355 397.312C263.716 395.887 262.927 394.129 260.992 392.678L260.392 393.479C262.117 394.771 262.814 396.321 263.456 397.75L263.534 397.924C264.148 399.286 264.79 400.635 266.46 401.122C266.549 401.432 266.731 401.694 266.928 401.925C267.068 402.089 267.23 402.255 267.397 402.422L267.482 402.507L267.482 402.507C267.627 402.652 267.777 402.802 267.935 402.97C268.316 403.374 268.617 403.72 268.88 404.029C268.942 404.102 269.003 404.175 269.063 404.245C269.252 404.468 269.429 404.678 269.604 404.872C270.185 405.513 270.415 405.831 270.53 406.174C270.651 406.531 270.665 406.956 270.665 407.878C270.665 408.69 270.366 409.299 269.939 409.833C269.721 410.104 269.472 410.354 269.209 410.602C269.124 410.683 269.034 410.766 268.943 410.85L268.942 410.851L268.942 410.851C268.856 410.93 268.769 411.011 268.684 411.091C268.657 410.597 268.719 409.9 268.793 409.38L268.798 409.345V409.31C268.798 409.09 268.679 408.914 268.62 408.832C268.543 408.724 268.442 408.615 268.336 408.51C268.122 408.298 267.836 408.058 267.532 407.819C266.924 407.341 266.2 406.834 265.716 406.511C264.11 405.362 262.201 403.191 260.209 400.703C259.339 399.617 258.45 398.465 257.569 397.326C256.461 395.89 255.368 394.475 254.351 393.238L253.579 393.873C254.598 395.114 255.665 396.495 256.757 397.91C257.635 399.047 258.529 400.205 259.428 401.328C261.415 403.809 263.405 406.09 265.141 407.33L265.148 407.334L265.154 407.339C265.626 407.653 266.331 408.146 266.914 408.605C267.208 408.835 267.459 409.048 267.633 409.221C267.701 409.288 267.751 409.342 267.784 409.383C267.71 409.94 267.648 410.687 267.692 411.247C267.705 411.402 267.726 411.558 267.764 411.699C267.79 411.798 267.831 411.919 267.905 412.032C267.814 412.375 267.732 412.783 267.644 413.224L267.637 413.258L267.637 413.258C267.517 413.855 267.38 414.541 267.186 415.296C266.792 416.833 266.167 418.649 265.008 420.502L264.923 420.637L264.932 420.795L264.948 421.071V421.071C265.185 425.256 265.494 430.704 265.592 435.608C265.643 438.114 265.638 440.471 265.541 442.44C265.444 444.424 265.254 445.964 264.957 446.867C264.908 447.015 264.864 447.256 264.822 447.534C264.777 447.827 264.729 448.202 264.678 448.646C264.576 449.534 264.461 450.71 264.34 452.07C264.098 454.791 263.831 458.265 263.596 461.685C263.477 463.416 263.366 465.134 263.271 466.735ZM264.28 466.61C285.018 463.79 301 446.011 301 424.5C301 401.203 282.256 382.284 259.026 382.003C259.018 382.09 259.01 382.177 259.002 382.263C258.987 382.434 258.971 382.602 258.956 382.766L258.956 382.768C258.854 383.88 258.766 384.835 258.765 385.434C258.766 385.438 258.772 385.465 258.8 385.518C258.838 385.592 258.903 385.689 259.002 385.811C259.201 386.054 259.501 386.35 259.889 386.688C260.661 387.363 261.726 388.16 262.881 388.986C263.668 389.549 264.501 390.127 265.304 390.684L265.304 390.685C266.827 391.742 268.243 392.725 269.043 393.392C270.473 394.582 270.863 396.704 270.488 398.388C270.298 399.241 269.901 400.042 269.278 400.588C268.837 400.974 268.297 401.218 267.68 401.266L267.689 401.276C267.8 401.407 267.938 401.548 268.106 401.716L268.187 401.798C268.332 401.943 268.493 402.105 268.662 402.283C269.06 402.704 269.373 403.065 269.642 403.381C269.71 403.461 269.774 403.537 269.836 403.61C270.021 403.829 270.182 404.02 270.345 404.2C270.922 404.837 271.288 405.292 271.478 405.853C271.662 406.399 271.665 407.006 271.665 407.878C271.665 408.975 271.248 409.798 270.719 410.458C270.459 410.783 270.17 411.07 269.896 411.329C269.792 411.427 269.694 411.517 269.6 411.605L269.6 411.605C269.433 411.759 269.278 411.902 269.13 412.05C269.061 412.119 268.979 412.19 268.882 412.248C268.8 412.549 268.721 412.937 268.624 413.42L268.616 413.461C268.497 414.055 268.355 414.763 268.155 415.544C267.754 417.109 267.117 418.977 265.94 420.896L265.947 421.021C266.184 425.202 266.493 430.665 266.592 435.588C266.643 438.105 266.638 440.487 266.54 442.489C266.442 444.475 266.251 446.136 265.906 447.18C265.888 447.236 265.854 447.395 265.81 447.684C265.769 447.96 265.722 448.322 265.672 448.76C265.571 449.636 265.457 450.802 265.336 452.158C265.095 454.871 264.829 458.338 264.594 461.754C264.479 463.416 264.373 465.065 264.28 466.61ZM251.08 401.633C251.367 400.584 251.692 399.403 251.914 398.084C253.229 399.666 254.316 401.004 255.133 402.207C254.947 402.699 254.784 403.312 254.663 403.869C254.521 404.518 254.421 405.162 254.422 405.492C254.422 405.626 254.457 405.769 254.49 405.884C254.527 406.01 254.576 406.155 254.633 406.307C254.747 406.611 254.9 406.979 255.058 407.355L255.12 407.503C255.384 408.129 255.65 408.761 255.807 409.236C255.128 410.274 254.348 411.082 253.573 411.885C253.439 412.024 253.305 412.163 253.172 412.303C253.158 412.278 253.143 412.253 253.127 412.225C252.907 411.832 252.626 411.238 252.323 410.544C251.718 409.161 251.046 407.437 250.611 406.271C250.237 405.265 250.427 404.098 250.837 402.531C250.912 402.244 250.994 401.944 251.08 401.633L251.08 401.633ZM255.64 404.082C255.696 403.825 255.76 403.564 255.828 403.316C256.355 404.246 256.668 405.077 256.761 405.87C256.846 406.591 256.753 407.308 256.438 408.07C256.314 407.761 256.179 407.441 256.052 407.138L255.98 406.968C255.82 406.588 255.675 406.24 255.57 405.957C255.517 405.816 255.478 405.699 255.452 405.608C255.429 405.529 255.424 405.493 255.422 405.487C255.422 405.486 255.422 405.486 255.422 405.486L255.422 405.489C255.421 405.279 255.499 404.729 255.64 404.082ZM253.383 412.612C253.383 412.612 253.381 412.611 253.378 412.608C253.381 412.61 253.383 412.612 253.383 412.612ZM257.958 464.026C257.961 464.023 257.961 464.024 257.957 464.028L257.958 464.026ZM267.823 409.437C267.825 409.443 267.828 409.446 267.828 409.446C267.828 409.446 267.828 409.446 267.828 409.445C267.827 409.444 267.825 409.441 267.823 409.437Z" fill="black"/>
</g>
<path d="M2.31 386H59.51L60.61 407.78H58.63C55.55 400.373 52.3233 395.313 48.95 392.6C45.5767 389.813 40.6267 388.42 34.1 388.42H30.25V422.41H33.99C37.4367 422.41 40.3333 421.127 42.68 418.56C45.0267 415.92 46.6767 412.4 47.63 408H49.28V440.56H47.41C46.09 435.06 44.2933 431.137 42.02 428.79C39.82 426.443 36.7767 425.27 32.89 425.27H30.25V460.58H34.43C41.1767 460.58 46.8967 458.563 51.59 454.53C56.3567 450.497 59.62 445.327 61.38 439.02H63.58L62.7 463H2.31V460.58H8.8V388.42H2.31V386ZM22.77 381.27L35.42 363.45L40.7 363.89C42.5333 364.037 43.8533 364.587 44.66 365.54C45.54 366.493 45.98 367.593 45.98 368.84C45.98 371.773 44.3667 373.9 41.14 375.22L23.65 382.37L22.77 381.27ZM182.023 386L183.123 413.61H181.033C177.806 403.857 174.946 397.22 172.453 393.7C169.959 390.107 166.366 388.31 161.673 388.31H160.353V460.69H169.703V463H129.553V460.69H138.903V388.31H137.473C132.779 388.31 129.149 390.18 126.582 393.92C124.016 397.587 121.193 404.15 118.113 413.61H116.023L117.123 386H182.023Z" fill="black"/>
<path d="M330.75 386H364.3V388.09H358.25V460.91H364.3V463H330.75V460.91H336.8V388.09H330.75V386ZM416.162 386H455.762V388.42H444.102V460.58H448.062C454.295 460.58 459.245 458.673 462.912 454.86C466.652 451.047 470.428 445.18 474.242 437.26H476.552L474.462 463H416.162V460.58H422.652V388.42H416.162V386ZM528.439 386H585.639L586.739 407.78H584.759C581.679 400.373 578.452 395.313 575.079 392.6C571.706 389.813 566.756 388.42 560.229 388.42H556.379V422.41H560.119C563.566 422.41 566.462 421.127 568.809 418.56C571.156 415.92 572.806 412.4 573.759 408H575.409V440.56H573.539C572.219 435.06 570.422 431.137 568.149 428.79C565.949 426.443 562.906 425.27 559.019 425.27H556.379V460.58H560.559C567.306 460.58 573.026 458.563 577.719 454.53C582.486 450.497 585.749 445.327 587.509 439.02H589.709L588.829 463H528.439V460.58H534.929V388.42H528.439V386Z" fill="black"/>
<defs>
<filter id="filter0_d" x="212" y="382" width="93" height="93" filterUnits="userSpaceOnUse" color-interpolation-filters="sRGB">
<feFlood flood-opacity="0" result="BackgroundImageFix"/>
<feColorMatrix in="SourceAlpha" type="matrix" values="0 0 0 0 0 0 0 0 0 0 0 0 0 0 0 0 0 0 127 0"/>
<feOffset dy="4"/>
<feGaussianBlur stdDeviation="2"/>
<feColorMatrix type="matrix" values="0 0 0 0 0 0 0 0 0 0 0 0 0 0 0 0 0 0 0.25 0"/>
<feBlend mode="normal" in2="BackgroundImageFix" result="effect1_dropShadow"/>
<feBlend mode="normal" in="SourceGraphic" in2="effect1_dropShadow" result="shape"/>
</filter>
</defs>
</svg>
