<svg width="595" height="842" viewBox="0 0 595 842" fill="none" xmlns="http://www.w3.org/2000/svg">
<rect width="595" height="842" fill="black"/>
<path d="M147.357 413.758V447.582H161.341C158.582 440.894 154.72 427.746 161.341 428.664C169.617 429.81 179.891 423.791 176.466 413.758C173.726 405.732 165.241 402.388 161.341 401.719C139.842 420.447 106.975 447.346 150.125 402.401" stroke="white" stroke-opacity="0.5" stroke-width="2"/>
<path d="M166 447.709L171.081 432.97V430.611C171.081 429.825 169.274 430.022 180.113 430.022C190.953 430.022 184.63 436.114 180.113 439.16L186.888 447.709H180.113L172.492 439.16V447.709H166Z" stroke="white" stroke-opacity="0.5" stroke-width="2"/>
<path d="M188 436.462C188 432.1 192.755 430.436 195.133 430.149H203.158C205.833 430.149 203.158 428.083 203.158 439.331C203.158 453.391 196.917 444.496 195.133 447.079C193.707 449.144 189.783 445.644 188 443.635V436.462Z" stroke="white" stroke-opacity="0.5" stroke-width="2"/>
<path d="M208.197 416.107V447.689C217.791 449.986 235.399 450.732 231.335 435.343C227.272 419.954 186.94 401.369 167 394" stroke="white" stroke-opacity="0.5" stroke-width="2"/>
<path d="M247.183 447.819L232 360.819C247.555 360.819 282.684 363.145 298.76 372.449C314.836 381.753 323.618 421.056 326 439.544H298.76C301.96 429.107 309.401 418.123 281 408.819C252.599 399.515 253.732 404.207 261.919 413.824L273.753 439.544L247.183 447.819Z" stroke="white" stroke-width="4"/>
<path d="M330.5 440.514C335.3 438.114 323.5 401.847 317 384.014H332.5C336.1 384.014 339.667 396.014 341 402.014C343.333 402.847 352 403.614 348 400.014C344 396.414 350 391.593 354.5 388.514C357.667 386.347 363.7 381.014 362.5 377.014C361.3 373.014 372.667 380.014 378.5 384.014C371.5 393.014 358.5 411.014 362.5 411.014C366.5 411.014 382.167 430.68 389.5 440.514H374C366.5 440.514 346.5 410.014 343 411.014C339.5 412.014 355.5 440.514 354.5 440.514C353.5 440.514 324.5 443.514 330.5 440.514Z" stroke="white" stroke-width="4"/>
<path d="M391.5 406.5L406.5 434.806L369 479.806C366 481.972 361.8 489.506 369 502.306C389.167 479.806 469.685 381.176 475.5 368.819C479.5 360.319 475.5 340.819 454 352.819C444.738 357.989 484 348.806 454 380.806C430 406.406 436.5 399.139 437.5 398.306L415.5 421.806C408.667 408.973 394.8 383.306 394 383.306C393 383.306 376 443.806 385 383.306C392.2 334.906 240 337.819 142 342.319" stroke="white" stroke-width="4"/>
<path d="M268.281 394C263.115 393.333 254.181 388.6 259.781 375C267.115 377.167 284.181 382.4 293.781 386C303.381 389.6 297.781 397.5 293.781 401L268.281 394Z" stroke="white" stroke-width="3"/>
</svg>
