<svg width="1440" height="1024" viewBox="0 0 1440 1024" fill="none" xmlns="http://www.w3.org/2000/svg">
<rect width="1440" height="1024" fill="url(#paint0_linear)"/>
<g filter="url(#filter0_d)">
<path d="M782.2 381.4L747.4 497C737 533.8 727.8 571 720.6 605.4H719.4C712.6 570.2 703.8 534.2 693.8 497L660.6 381.4H587.4L566.6 689H620.6L626.6 570.6C628.6 532.6 630.6 487 631.4 448.2H632.6C639.8 485.8 649.4 527.4 659.4 562.2L693.4 684.6H738.2L775.8 560.2C786.2 525.8 797.4 485 806.2 448.2H807.4C807 479.4 809 529 810.6 569.4L816.2 689H872.6L855 381.4H782.2Z" fill="#93AED6"/>
</g>
<path d="M591.54 317.02L591.24 319.42L584.82 319.24H580.14L579.96 343.18L580.08 355H576.96L577.14 343.36L576.96 319.24H572.28L565.74 319.42L565.5 319.06L565.8 316.66H591.24L591.54 317.02ZM627.444 343.18L627.504 355H624.444L624.564 343.36V336.94H602.064V343.18L602.184 355H599.064L599.184 343.36L599.064 316.66H602.184L602.124 334.24H624.504L624.444 316.66H627.564L627.444 343.18ZM660.189 352.54L659.889 355H639.669L639.849 343.36L639.669 316.66H659.829L660.069 317.02L659.709 319.48L650.769 319.36L642.849 319.42L642.729 333.88L650.229 333.94L656.649 333.88L656.889 334.18L656.589 336.64L642.729 336.58L642.669 343.18L642.789 352.3L650.529 352.36L659.949 352.18L660.189 352.54ZM715.067 355H712.187L711.167 343.3L708.827 322.06H708.467L696.767 350.38H693.947L682.667 322.06H682.307L679.967 343.12L678.827 355H676.067L680.207 316.66H683.747L685.907 322.54L695.327 346.24H695.627L705.587 322.06L707.627 316.66H711.167L715.067 355ZM751.676 355H748.436L747.596 351.76L744.716 343.48L735.596 343.36L727.376 343.48L724.256 351.64L723.356 355H720.116L734.756 316.66H738.296L751.676 355ZM743.756 340.72L736.616 320.26H736.256L728.456 340.72L735.956 340.78L743.756 340.72ZM772.459 339.28C775.459 344.12 778.919 349.12 782.839 354.28V354.7C782.199 355.02 781.299 355.28 780.139 355.48L779.659 355.24C775.779 349.68 772.499 344.6 769.819 340H762.259V343.18L762.379 355H759.259L759.439 343.36L759.259 316.66L769.459 316.6C773.099 316.6 775.899 317.52 777.859 319.36C779.819 321.2 780.799 323.86 780.799 327.34C780.799 330.14 780.079 332.58 778.639 334.66C777.199 336.7 775.139 338.24 772.459 339.28ZM762.319 337.24L770.119 337.36C772.559 336.68 774.419 335.52 775.699 333.88C776.979 332.2 777.619 330.08 777.619 327.52C777.619 324.84 776.879 322.82 775.399 321.46C773.959 320.06 771.859 319.32 769.099 319.24L762.439 319.36L762.319 337.24ZM794.544 343.18L794.664 355H791.544L791.664 343.36L791.544 316.66H794.664L794.544 343.18ZM799.284 334.6C804.764 341.48 810.644 348.06 816.924 354.34V354.76C816.324 355 815.384 355.24 814.104 355.48L813.684 355.3C807.044 348.34 801.104 341.5 795.864 334.78V334.54L809.664 319.72L812.184 316.66H815.904L799.284 334.6ZM843.764 352.54L843.464 355H823.244L823.424 343.36L823.244 316.66H843.404L843.644 317.02L843.284 319.48L834.344 319.36L826.424 319.42L826.304 333.88L833.804 333.94L840.224 333.88L840.464 334.18L840.164 336.64L826.304 336.58L826.244 343.18L826.364 352.3L834.104 352.36L843.524 352.18L843.764 352.54ZM872.849 317.02L872.549 319.42L866.129 319.24H861.449L861.269 343.18L861.389 355H858.269L858.449 343.36L858.269 319.24H853.589L847.049 319.42L846.809 319.06L847.109 316.66H872.549L872.849 317.02Z" fill="#769ACF"/>
<defs>
<filter id="filter0_d" x="561.6" y="380.4" width="316" height="317.6" filterUnits="userSpaceOnUse" color-interpolation-filters="sRGB">
<feFlood flood-opacity="0" result="BackgroundImageFix"/>
<feColorMatrix in="SourceAlpha" type="matrix" values="0 0 0 0 0 0 0 0 0 0 0 0 0 0 0 0 0 0 127 0"/>
<feOffset dy="4"/>
<feGaussianBlur stdDeviation="2.5"/>
<feColorMatrix type="matrix" values="0 0 0 0 0 0 0 0 0 0.379167 0 0 0 0 0.0606667 0 0 0 0.61 0"/>
<feBlend mode="normal" in2="BackgroundImageFix" result="effect1_dropShadow"/>
<feBlend mode="normal" in="SourceGraphic" in2="effect1_dropShadow" result="shape"/>
</filter>
<linearGradient id="paint0_linear" x1="720" y1="0" x2="720" y2="1024" gradientUnits="userSpaceOnUse">
<stop offset="0.317708" stop-color="#FFF8EC"/>
<stop offset="1" stop-color="#92A3FF"/>
</linearGradient>
</defs>
</svg>
