<svg width="595" height="842" viewBox="0 0 595 842" fill="none" xmlns="http://www.w3.org/2000/svg">
<rect width="595" height="842" fill="white"/>
<circle cx="111" cy="414.004" r="55" fill="#838383"/>
<path d="M59.63 402H75.23L75.53 407.94H74.99C74.15 405.92 73.27 404.54 72.35 403.8C71.43 403.04 70.08 402.66 68.3 402.66H67.25V411.93H68.27C69.21 411.93 70 411.58 70.64 410.88C71.28 410.16 71.73 409.2 71.99 408H72.44V416.88H71.93C71.57 415.38 71.08 414.31 70.46 413.67C69.86 413.03 69.03 412.71 67.97 412.71H67.25V422.34H68.39C70.23 422.34 71.79 421.79 73.07 420.69C74.37 419.59 75.26 418.18 75.74 416.46H76.34L76.1 423H59.63V422.34H61.4V402.66H59.63V402ZM65.21 400.71L68.66 395.85L70.1 395.97C70.6 396.01 70.96 396.16 71.18 396.42C71.42 396.68 71.54 396.98 71.54 397.32C71.54 398.12 71.1 398.7 70.22 399.06L65.45 401.01L65.21 400.71ZM95.8925 402L96.1925 409.53H95.6225C94.7425 406.87 93.9625 405.06 93.2825 404.1C92.6025 403.12 91.6225 402.63 90.3425 402.63H89.9825V422.37H92.5325V423H81.5825V422.37H84.1325V402.63H83.7425C82.4625 402.63 81.4725 403.14 80.7725 404.16C80.0725 405.16 79.3025 406.95 78.4625 409.53H77.8925L78.1925 402H95.8925ZM111.413 413.73V411.51C111.413 407.85 111.233 405.54 110.873 404.58C110.473 403.48 109.903 402.8 109.163 402.54C108.743 402.38 108.233 402.3 107.633 402.3C107.033 402.3 106.513 402.38 106.073 402.54C105.653 402.7 105.303 402.98 105.023 403.38C104.743 403.78 104.513 404.2 104.333 404.64C104.173 405.08 104.043 405.7 103.943 406.5C103.823 407.66 103.763 409.37 103.763 411.63V413.79C103.763 416.23 103.853 417.97 104.033 419.01C104.233 420.03 104.473 420.76 104.753 421.2C105.373 422.18 106.333 422.67 107.633 422.67C109.213 422.67 110.233 422.01 110.693 420.69C111.173 419.35 111.413 417.03 111.413 413.73ZM107.573 423.3C104.233 423.3 101.733 422.4 100.073 420.6C98.4328 418.78 97.6128 416.16 97.6128 412.74C97.6128 409.3 98.4928 406.6 100.253 404.64C102.033 402.66 104.543 401.67 107.783 401.67C111.023 401.67 113.463 402.61 115.103 404.49C116.763 406.35 117.593 409 117.593 412.44C117.593 415.88 116.753 418.55 115.073 420.45C113.413 422.35 110.913 423.3 107.573 423.3ZM119.574 402H128.724V402.57H127.074V422.43H128.724V423H119.574V422.43H121.224V402.57H119.574V402ZM130.118 402H140.918V402.66H137.738V422.34H138.818C140.518 422.34 141.868 421.82 142.868 420.78C143.888 419.74 144.918 418.14 145.958 415.98H146.588L146.018 423H130.118V422.34H131.888V402.66H130.118V402ZM147.989 402H163.589L163.889 407.94H163.349C162.509 405.92 161.629 404.54 160.709 403.8C159.789 403.04 158.439 402.66 156.659 402.66H155.609V411.93H156.629C157.569 411.93 158.359 411.58 158.999 410.88C159.639 410.16 160.089 409.2 160.349 408H160.799V416.88H160.289C159.929 415.38 159.439 414.31 158.819 413.67C158.219 413.03 157.389 412.71 156.329 412.71H155.609V422.34H156.749C158.589 422.34 160.149 421.79 161.429 420.69C162.729 419.59 163.619 418.18 164.099 416.46H164.699L164.459 423H147.989V422.34H149.759V402.66H147.989V402Z" fill="white"/>
<circle cx="482" cy="414.004" r="55" fill="#5BBC93"/>
<path d="M430.63 402H446.23L446.53 407.94H445.99C445.15 405.92 444.27 404.54 443.35 403.8C442.43 403.04 441.08 402.66 439.3 402.66H438.25V411.93H439.27C440.21 411.93 441 411.58 441.64 410.88C442.28 410.16 442.73 409.2 442.99 408H443.44V416.88H442.93C442.57 415.38 442.08 414.31 441.46 413.67C440.86 413.03 440.03 412.71 438.97 412.71H438.25V422.34H439.39C441.23 422.34 442.79 421.79 444.07 420.69C445.37 419.59 446.26 418.18 446.74 416.46H447.34L447.1 423H430.63V422.34H432.4V402.66H430.63V402ZM436.21 400.71L439.66 395.85L441.1 395.97C441.6 396.01 441.96 396.16 442.18 396.42C442.42 396.68 442.54 396.98 442.54 397.32C442.54 398.12 442.1 398.7 441.22 399.06L436.45 401.01L436.21 400.71ZM466.893 402L467.193 409.53H466.623C465.743 406.87 464.963 405.06 464.283 404.1C463.603 403.12 462.623 402.63 461.343 402.63H460.983V422.37H463.533V423H452.583V422.37H455.133V402.63H454.743C453.463 402.63 452.473 403.14 451.772 404.16C451.073 405.16 450.303 406.95 449.463 409.53H448.893L449.193 402H466.893ZM482.413 413.73V411.51C482.413 407.85 482.233 405.54 481.873 404.58C481.473 403.48 480.903 402.8 480.163 402.54C479.743 402.38 479.233 402.3 478.633 402.3C478.033 402.3 477.513 402.38 477.073 402.54C476.653 402.7 476.303 402.98 476.023 403.38C475.743 403.78 475.513 404.2 475.333 404.64C475.173 405.08 475.043 405.7 474.943 406.5C474.823 407.66 474.763 409.37 474.763 411.63V413.79C474.763 416.23 474.853 417.97 475.033 419.01C475.233 420.03 475.473 420.76 475.753 421.2C476.373 422.18 477.333 422.67 478.633 422.67C480.213 422.67 481.233 422.01 481.693 420.69C482.173 419.35 482.413 417.03 482.413 413.73ZM478.573 423.3C475.233 423.3 472.733 422.4 471.073 420.6C469.433 418.78 468.613 416.16 468.613 412.74C468.613 409.3 469.493 406.6 471.253 404.64C473.033 402.66 475.543 401.67 478.783 401.67C482.023 401.67 484.463 402.61 486.103 404.49C487.763 406.35 488.593 409 488.593 412.44C488.593 415.88 487.753 418.55 486.073 420.45C484.413 422.35 481.913 423.3 478.573 423.3ZM490.574 402H499.724V402.57H498.074V422.43H499.724V423H490.574V422.43H492.224V402.57H490.574V402ZM501.118 402H511.918V402.66H508.738V422.34H509.818C511.518 422.34 512.868 421.82 513.868 420.78C514.888 419.74 515.918 418.14 516.958 415.98H517.588L517.018 423H501.118V422.34H502.888V402.66H501.118V402ZM518.989 402H534.589L534.889 407.94H534.349C533.509 405.92 532.629 404.54 531.709 403.8C530.789 403.04 529.439 402.66 527.659 402.66H526.609V411.93H527.629C528.569 411.93 529.359 411.58 529.999 410.88C530.639 410.16 531.089 409.2 531.349 408H531.799V416.88H531.289C530.929 415.38 530.439 414.31 529.819 413.67C529.219 413.03 528.389 412.71 527.329 412.71H526.609V422.34H527.749C529.589 422.34 531.149 421.79 532.429 420.69C533.729 419.59 534.619 418.18 535.099 416.46H535.699L535.459 423H518.989V422.34H520.759V402.66H518.989V402Z" fill="white"/>
<path d="M473.149 377.39C468.389 371.679 472.752 358.75 475.528 353L482.073 354.19C482.073 357.164 481.479 361.328 481.478 363.113C481.476 364.898 491.5 371 494.5 373.5C497.597 376.081 496.398 383 492.234 382.149M473.149 377.39C472.554 382.744 470.278 386.37 471.364 389.288C472.45 392.205 474.73 397.927 475.16 397.471M473.149 377.39C475.29 379.96 477.046 382.067 478.278 383.934M479.098 392.857C481.002 389.811 480.469 387.252 478.278 383.934M479.098 392.857C477.906 394.764 476.427 396.098 475.16 397.471M479.098 392.857C478.701 391.469 477.317 388.693 477.315 388.098C477.313 387.425 477.758 385.123 478.278 383.934M481.478 440.447C481.954 440.447 478.106 422.204 476.123 413.083C475.994 412.488 472.556 410.703 472.556 405.944C472.556 401.78 473.264 399.525 475.16 397.471M481.478 440.447C480.883 440.447 476.125 449.37 474.933 452.94C473.67 456.724 471.961 477.924 466.605 477.33C464.193 477.062 469.579 483.873 472.554 487.442C474.735 488.434 478.86 489.941 477.908 488.037C475.528 485.658 477.313 485.063 476.718 485.063C476.123 485.063 474.933 477.924 475.528 476.735C476.123 475.545 480.288 458.888 480.883 460.673M481.478 440.447C480.288 444.81 478.503 454.962 480.883 460.673M480.883 460.673C481.478 462.458 482.667 479.114 480.883 478.519C479.098 477.924 480.288 483.873 481.478 482.089C482.667 480.304 485.642 489.227 486.832 487.442C488.022 485.658 495.756 492.201 492.186 486.848C488.617 481.494 490.401 485.063 489.212 484.468C488.022 483.873 488.617 474.95 488.022 474.95C487.427 474.95 489.73 441.889 490.401 439.852C492 435 490.996 417.643 490.401 407.134C493.378 402.375 493.596 397.824 494.191 396.039M492.234 382.149C488.112 381.307 489.259 376.2 484.5 372.631M492.234 382.149C492.234 382.942 493 383.5 493.971 384.529C494.942 385.557 495.5 386.291 496.059 386.908C497.5 388.5 497.54 388.838 497.54 391.072C497.54 393.452 495.756 394.641 494.566 395.831C493.614 396.783 493.773 394.245 493.971 392.857C493.971 392.381 491.591 390.676 490.401 389.882C486.239 386.908 480.684 378.778 476.123 373.226" stroke="white" stroke-opacity="0.5"/>
<circle cx="297" cy="414.004" r="55" fill="black"/>
<path d="M244.63 402H260.23L260.53 407.94H259.99C259.15 405.92 258.27 404.54 257.35 403.8C256.43 403.04 255.08 402.66 253.3 402.66H252.25V411.93H253.27C254.21 411.93 255 411.58 255.64 410.88C256.28 410.16 256.73 409.2 256.99 408H257.44V416.88H256.93C256.57 415.38 256.08 414.31 255.46 413.67C254.86 413.03 254.03 412.71 252.97 412.71H252.25V422.34H253.39C255.23 422.34 256.79 421.79 258.07 420.69C259.37 419.59 260.26 418.18 260.74 416.46H261.34L261.1 423H244.63V422.34H246.4V402.66H244.63V402ZM250.21 400.71L253.66 395.85L255.1 395.97C255.6 396.01 255.96 396.16 256.18 396.42C256.42 396.68 256.54 396.98 256.54 397.32C256.54 398.12 256.1 398.7 255.22 399.06L250.45 401.01L250.21 400.71ZM280.893 402L281.193 409.53H280.623C279.743 406.87 278.963 405.06 278.283 404.1C277.603 403.12 276.623 402.63 275.343 402.63H274.983V422.37H277.533V423H266.583V422.37H269.133V402.63H268.743C267.463 402.63 266.473 403.14 265.772 404.16C265.073 405.16 264.303 406.95 263.463 409.53H262.893L263.193 402H280.893ZM296.413 413.73V411.51C296.413 407.85 296.233 405.54 295.873 404.58C295.473 403.48 294.903 402.8 294.163 402.54C293.743 402.38 293.233 402.3 292.633 402.3C292.033 402.3 291.513 402.38 291.073 402.54C290.653 402.7 290.303 402.98 290.023 403.38C289.743 403.78 289.513 404.2 289.333 404.64C289.173 405.08 289.043 405.7 288.943 406.5C288.823 407.66 288.763 409.37 288.763 411.63V413.79C288.763 416.23 288.853 417.97 289.033 419.01C289.233 420.03 289.473 420.76 289.753 421.2C290.373 422.18 291.333 422.67 292.633 422.67C294.213 422.67 295.233 422.01 295.693 420.69C296.173 419.35 296.413 417.03 296.413 413.73ZM292.573 423.3C289.233 423.3 286.733 422.4 285.073 420.6C283.433 418.78 282.613 416.16 282.613 412.74C282.613 409.3 283.493 406.6 285.253 404.64C287.033 402.66 289.543 401.67 292.783 401.67C296.023 401.67 298.463 402.61 300.103 404.49C301.763 406.35 302.593 409 302.593 412.44C302.593 415.88 301.753 418.55 300.073 420.45C298.413 422.35 295.913 423.3 292.573 423.3ZM304.574 402H313.724V402.57H312.074V422.43H313.724V423H304.574V422.43H306.224V402.57H304.574V402ZM315.118 402H325.918V402.66H322.738V422.34H323.818C325.518 422.34 326.868 421.82 327.868 420.78C328.888 419.74 329.918 418.14 330.958 415.98H331.588L331.018 423H315.118V422.34H316.888V402.66H315.118V402ZM332.989 402H348.589L348.889 407.94H348.349C347.509 405.92 346.629 404.54 345.709 403.8C344.789 403.04 343.439 402.66 341.659 402.66H340.609V411.93H341.629C342.569 411.93 343.359 411.58 343.999 410.88C344.639 410.16 345.089 409.2 345.349 408H345.799V416.88H345.289C344.929 415.38 344.439 414.31 343.819 413.67C343.219 413.03 342.389 412.71 341.329 412.71H340.609V422.34H341.749C343.589 422.34 345.149 421.79 346.429 420.69C347.729 419.59 348.619 418.18 349.099 416.46H349.699L349.459 423H332.989V422.34H334.759V402.66H332.989V402Z" fill="white"/>
<path d="M288.149 377.39C283.389 371.679 287.752 358.75 290.528 353L297.073 354.19C297.073 357.164 296.479 361.328 296.478 363.113C296.476 364.898 306.5 371 309.5 373.5C312.597 376.081 311.398 383 307.234 382.149M288.149 377.39C287.554 382.744 285.278 386.37 286.364 389.288C287.45 392.205 289.73 397.927 290.16 397.471M288.149 377.39C290.29 379.96 292.046 382.067 293.278 383.934M294.098 392.857C296.002 389.811 295.469 387.252 293.278 383.934M294.098 392.857C292.906 394.764 291.427 396.098 290.16 397.471M294.098 392.857C293.701 391.469 292.317 388.693 292.315 388.098C292.313 387.425 292.758 385.123 293.278 383.934M296.478 440.447C296.954 440.447 293.106 422.204 291.123 413.083C290.994 412.488 287.556 410.703 287.556 405.944C287.556 401.78 288.264 399.525 290.16 397.471M296.478 440.447C295.883 440.447 291.125 449.37 289.933 452.94C288.67 456.724 286.961 477.924 281.605 477.33C279.193 477.062 284.579 483.873 287.554 487.442C289.735 488.434 293.86 489.941 292.908 488.037C290.528 485.658 292.313 485.063 291.718 485.063C291.123 485.063 289.933 477.924 290.528 476.735C291.123 475.545 295.288 458.888 295.883 460.673M296.478 440.447C295.288 444.81 293.503 454.962 295.883 460.673M295.883 460.673C296.478 462.458 297.667 479.114 295.883 478.519C294.098 477.924 295.288 483.873 296.478 482.089C297.667 480.304 300.642 489.227 301.832 487.442C303.022 485.658 310.756 492.201 307.186 486.848C303.617 481.494 305.401 485.063 304.212 484.468C303.022 483.873 303.617 474.95 303.022 474.95C302.427 474.95 304.73 441.889 305.401 439.852C307 435 305.996 417.643 305.401 407.134C308.378 402.375 308.596 397.824 309.191 396.039M307.234 382.149C303.112 381.307 304.259 376.2 299.5 372.631M307.234 382.149C307.234 382.942 308 383.5 308.971 384.529C309.942 385.557 310.5 386.291 311.059 386.908C312.5 388.5 312.54 388.838 312.54 391.072C312.54 393.452 310.756 394.641 309.566 395.831C308.614 396.783 308.773 394.245 308.971 392.857C308.971 392.381 306.591 390.676 305.401 389.882C301.239 386.908 295.684 378.778 291.123 373.226" stroke="white" stroke-opacity="0.5"/>
<path d="M102.149 377.39C97.3893 371.679 101.752 358.75 104.528 353L111.073 354.19C111.073 357.164 110.479 361.328 110.478 363.113C110.476 364.898 120.5 371 123.5 373.5C126.597 376.081 125.398 383 121.234 382.149M102.149 377.39C101.554 382.744 99.2778 386.37 100.364 389.288C101.45 392.205 103.73 397.927 104.16 397.471M102.149 377.39C104.29 379.96 106.046 382.067 107.278 383.934M108.098 392.857C110.002 389.811 109.469 387.252 107.278 383.934M108.098 392.857C106.906 394.764 105.427 396.098 104.16 397.471M108.098 392.857C107.701 391.469 106.317 388.693 106.315 388.098C106.313 387.425 106.758 385.123 107.278 383.934M110.478 440.447C110.954 440.447 107.106 422.204 105.123 413.083C104.994 412.488 101.556 410.703 101.556 405.944C101.556 401.78 102.264 399.525 104.16 397.471M110.478 440.447C109.883 440.447 105.125 449.37 103.933 452.94C102.67 456.724 100.961 477.924 95.6045 477.33C93.1925 477.062 98.5791 483.873 101.554 487.442C103.735 488.434 107.86 489.941 106.908 488.037C104.528 485.658 106.313 485.063 105.718 485.063C105.123 485.063 103.933 477.924 104.528 476.735C105.123 475.545 109.288 458.888 109.883 460.673M110.478 440.447C109.288 444.81 107.503 454.962 109.883 460.673M109.883 460.673C110.478 462.458 111.667 479.114 109.883 478.519C108.098 477.924 109.288 483.873 110.478 482.089C111.667 480.304 114.642 489.227 115.832 487.442C117.022 485.658 124.756 492.201 121.186 486.848C117.617 481.494 119.401 485.063 118.212 484.468C117.022 483.873 117.617 474.95 117.022 474.95C116.427 474.95 118.73 441.889 119.401 439.852C121 435 119.996 417.643 119.401 407.134C122.378 402.375 122.596 397.824 123.191 396.039M121.234 382.149C117.112 381.307 118.259 376.2 113.5 372.631M121.234 382.149C121.234 382.942 122 383.5 122.971 384.529C123.942 385.557 124.5 386.291 125.059 386.908C126.5 388.5 126.54 388.838 126.54 391.072C126.54 393.452 124.756 394.641 123.566 395.831C122.614 396.783 122.773 394.245 122.971 392.857C122.971 392.381 120.591 390.676 119.401 389.882C115.239 386.908 109.684 378.778 105.123 373.226" stroke="white" stroke-opacity="0.5"/>
</svg>
