<svg width="46" height="67" viewBox="0 0 46 67" fill="none" xmlns="http://www.w3.org/2000/svg">
<path d="M25.5859 11.9C29.2859 11.9 32.5193 12.6333 35.2859 14.1C38.0526 15.5667 40.1859 17.6333 41.6859 20.3C43.2193 22.9333 43.9859 25.9833 43.9859 29.45C43.9859 32.8833 43.2193 35.9333 41.6859 38.6C40.1859 41.2667 38.0359 43.3333 35.2359 44.8C32.4693 46.2667 29.2526 47 25.5859 47H12.4359V11.9H25.5859ZM25.0359 39.6C28.2693 39.6 30.7859 38.7167 32.5859 36.95C34.3859 35.1833 35.2859 32.6833 35.2859 29.45C35.2859 26.2167 34.3859 23.7 32.5859 21.9C30.7859 20.1 28.2693 19.2 25.0359 19.2H20.9859V39.6H25.0359Z" fill="#DEDFF5"/>
<path d="M5.384 44.1266C5.384 43.5346 5.50133 43.0172 5.736 42.5746C5.97067 42.1319 6.30133 41.7906 6.728 41.5506C7.14933 41.3052 7.63733 41.1826 8.192 41.1826C8.74133 41.1826 9.22933 41.3052 9.656 41.5506C10.0827 41.7906 10.4133 42.1346 10.648 42.5826C10.8827 43.0252 11 43.5399 11 44.1266L11 46.2306L5.384 46.2306L5.384 44.1266ZM9.816 44.2146C9.816 43.6972 9.67467 43.2946 9.392 43.0066C9.10933 42.7186 8.70933 42.5746 8.192 42.5746C7.67467 42.5746 7.272 42.7186 6.984 43.0066C6.696 43.2946 6.552 43.6972 6.552 44.2146L6.552 44.8626L9.816 44.8626L9.816 44.2146ZM6.48 39.0501L7.616 39.0501L7.616 37.2181L8.672 37.2181L8.672 39.0501L9.904 39.0501L9.904 36.9781L11 36.9781L11 40.4181L5.384 40.4181L5.384 36.9781L6.48 36.9781L6.48 39.0501ZM11.056 34.0579C11.056 34.4686 10.9893 34.8366 10.856 35.1619C10.7227 35.4873 10.5253 35.7486 10.264 35.9459C10.0027 36.1379 9.688 36.2393 9.32 36.2499L9.32 34.7939C9.528 34.7726 9.688 34.7006 9.8 34.5779C9.90667 34.4553 9.96 34.2953 9.96 34.0979C9.96 33.8953 9.91467 33.7353 9.824 33.6179C9.728 33.5006 9.59733 33.4419 9.432 33.4419C9.29333 33.4419 9.17867 33.4899 9.088 33.5859C8.99733 33.6766 8.92267 33.7913 8.864 33.9299C8.80533 34.0633 8.73867 34.2553 8.664 34.5059C8.552 34.8686 8.44 35.1646 8.328 35.3939C8.216 35.6233 8.05067 35.8206 7.832 35.9859C7.61333 36.1513 7.328 36.2339 6.976 36.2339C6.45333 36.2339 6.04533 36.0446 5.752 35.6659C5.45333 35.2873 5.304 34.7939 5.304 34.1859C5.304 33.5673 5.45333 33.0686 5.752 32.6899C6.04533 32.3113 6.456 32.1086 6.984 32.0819L6.984 33.5619C6.80267 33.5726 6.66133 33.6393 6.56 33.7619C6.45333 33.8846 6.4 34.0419 6.4 34.2339C6.4 34.3993 6.44533 34.5326 6.536 34.6339C6.62133 34.7353 6.74667 34.7859 6.912 34.7859C7.09333 34.7859 7.23467 34.7006 7.336 34.5299C7.43733 34.3593 7.54667 34.0926 7.664 33.7299C7.78667 33.3673 7.904 33.0739 8.016 32.8499C8.128 32.6206 8.29067 32.4233 8.504 32.2579C8.71733 32.0926 8.992 32.0099 9.328 32.0099C9.648 32.0099 9.93867 32.0926 10.2 32.2579C10.4613 32.4179 10.6693 32.6526 10.824 32.9619C10.9787 33.2713 11.056 33.6366 11.056 34.0579ZM5.384 29.8001L11 29.8001L11 31.1681L5.384 31.1681L5.384 29.8001ZM7.16 25.0807C6.97333 25.182 6.832 25.3287 6.736 25.5207C6.63467 25.7074 6.584 25.9287 6.584 26.1847C6.584 26.6274 6.73067 26.982 7.024 27.2487C7.312 27.5154 7.69867 27.6487 8.184 27.6487C8.70133 27.6487 9.10667 27.51 9.4 27.2327C9.688 26.95 9.832 26.5634 9.832 26.0727C9.832 25.7367 9.74667 25.454 9.576 25.2247C9.40533 24.99 9.16 24.8194 8.84 24.7127L8.84 26.4487L7.832 26.4487L7.832 23.4727L9.104 23.4727C9.44533 23.574 9.76267 23.7474 10.056 23.9927C10.3493 24.2327 10.5867 24.5394 10.768 24.9127C10.9493 25.286 11.04 25.7074 11.04 26.1767C11.04 26.7314 10.92 27.2274 10.68 27.6647C10.4347 28.0967 10.096 28.4354 9.664 28.6807C9.232 28.9207 8.73867 29.0407 8.184 29.0407C7.62933 29.0407 7.136 28.9207 6.704 28.6807C6.26667 28.4354 5.928 28.0967 5.688 27.6647C5.44267 27.2327 5.32 26.7394 5.32 26.1847C5.32 25.5127 5.48267 24.9474 5.808 24.4887C6.13333 24.0247 6.584 23.718 7.16 23.5687L7.16 25.0807ZM11 17.6909L11 19.0589L7.536 21.3469L11 21.3469L11 22.7149L5.384 22.7149L5.384 21.3469L8.864 19.0589L5.384 19.0589L5.384 17.6909L11 17.6909ZM11.056 14.6673C11.056 15.078 10.9893 15.446 10.856 15.7713C10.7227 16.0966 10.5253 16.358 10.264 16.5553C10.0027 16.7473 9.688 16.8486 9.32 16.8593L9.32 15.4033C9.528 15.382 9.688 15.31 9.8 15.1873C9.90667 15.0646 9.96 14.9046 9.96 14.7073C9.96 14.5046 9.91467 14.3446 9.824 14.2273C9.728 14.11 9.59733 14.0513 9.432 14.0513C9.29333 14.0513 9.17867 14.0993 9.088 14.1953C8.99733 14.286 8.92267 14.4006 8.864 14.5393C8.80533 14.6726 8.73866 14.8646 8.664 15.1153C8.552 15.478 8.44 15.774 8.328 16.0033C8.216 16.2326 8.05067 16.43 7.832 16.5953C7.61333 16.7606 7.328 16.8433 6.976 16.8433C6.45333 16.8433 6.04533 16.654 5.752 16.2753C5.45333 15.8966 5.304 15.4033 5.304 14.7953C5.304 14.1766 5.45333 13.678 5.752 13.2993C6.04533 12.9206 6.456 12.718 6.984 12.6913L6.984 14.1713C6.80266 14.182 6.66133 14.2486 6.56 14.3713C6.45333 14.494 6.4 14.6513 6.4 14.8433C6.4 15.0086 6.44533 15.142 6.536 15.2433C6.62133 15.3446 6.74666 15.3953 6.912 15.3953C7.09333 15.3953 7.23466 15.31 7.336 15.1393C7.43733 14.9686 7.54667 14.702 7.664 14.3393C7.78666 13.9766 7.904 13.6833 8.016 13.4593C8.128 13.23 8.29066 13.0326 8.504 12.8673C8.71733 12.702 8.992 12.6193 9.328 12.6193C9.648 12.6193 9.93867 12.702 10.2 12.8673C10.4613 13.0273 10.6693 13.262 10.824 13.5713C10.9787 13.8806 11.056 14.246 11.056 14.6673Z" fill="#DEDFF5"/>
</svg>
