<svg width="41" height="67" viewBox="0 0 41 67" fill="none" xmlns="http://www.w3.org/2000/svg">
<path d="M39.2494 23.2C39.2494 25.2333 38.7827 27.1 37.8494 28.8C36.9161 30.4667 35.4827 31.8167 33.5494 32.85C31.6161 33.8833 29.2161 34.4 26.3494 34.4H21.0494V47H12.4994V11.9H26.3494C29.1494 11.9 31.5161 12.3833 33.4494 13.35C35.3827 14.3167 36.8327 15.65 37.7994 17.35C38.7661 19.05 39.2494 21 39.2494 23.2ZM25.6994 27.6C27.3327 27.6 28.5494 27.2167 29.3494 26.45C30.1494 25.6833 30.5494 24.6 30.5494 23.2C30.5494 21.8 30.1494 20.7167 29.3494 19.95C28.5494 19.1833 27.3327 18.8 25.6994 18.8H21.0494V27.6H25.6994Z" fill="#DEDFF5"/>
<path d="M7.668 43.3439C7.95267 43.3439 8.214 43.4093 8.452 43.5399C8.68533 43.6706 8.87433 43.8713 9.019 44.1419C9.16367 44.4126 9.236 44.7486 9.236 45.1499L9.236 45.8919L11 45.8919L11 47.0889L6.086 47.0889L6.086 45.1499C6.086 44.7579 6.15367 44.4266 6.289 44.1559C6.42433 43.8853 6.611 43.6823 6.849 43.5469C7.087 43.4116 7.36 43.3439 7.668 43.3439ZM8.284 45.2409C8.284 45.0123 8.23033 44.8419 8.123 44.7299C8.01567 44.6179 7.864 44.5619 7.668 44.5619C7.472 44.5619 7.32033 44.6179 7.213 44.7299C7.10567 44.8419 7.052 45.0123 7.052 45.2409L7.052 45.8919L8.284 45.8919L8.284 45.2409ZM11 40.2148L9.145 41.2368L9.145 41.5238L11 41.5238L11 42.7208L6.086 42.7208L6.086 40.7118C6.086 40.3245 6.15367 39.9955 6.289 39.7248C6.42433 39.4495 6.611 39.2441 6.849 39.1088C7.08233 38.9735 7.34367 38.9058 7.633 38.9058C7.95967 38.9058 8.25133 38.9991 8.508 39.1858C8.76467 39.3678 8.94667 39.6385 9.054 39.9978L11 38.8638L11 40.2148ZM8.298 41.5238L8.298 40.7818C8.298 40.5625 8.24433 40.3991 8.137 40.2918C8.02967 40.1798 7.878 40.1238 7.682 40.1238C7.49533 40.1238 7.34833 40.1798 7.241 40.2918C7.13367 40.3991 7.08 40.5625 7.08 40.7818L7.08 41.5238L8.298 41.5238ZM11.049 35.8304C11.049 36.2924 10.9417 36.717 10.727 37.1044C10.5123 37.487 10.2137 37.7927 9.831 38.0214C9.44367 38.2454 9.00967 38.3574 8.529 38.3574C8.04833 38.3574 7.61667 38.2454 7.234 38.0214C6.85133 37.7927 6.55267 37.487 6.338 37.1044C6.12333 36.717 6.016 36.2924 6.016 35.8304C6.016 35.3684 6.12333 34.946 6.338 34.5634C6.55267 34.176 6.85133 33.8727 7.234 33.6534C7.61667 33.4294 8.04833 33.3174 8.529 33.3174C9.00967 33.3174 9.44367 33.4294 9.831 33.6534C10.2137 33.8774 10.5123 34.1807 10.727 34.5634C10.9417 34.946 11.049 35.3684 11.049 35.8304ZM9.957 35.8304C9.957 35.4384 9.82633 35.1257 9.565 34.8924C9.30367 34.6544 8.95833 34.5354 8.529 34.5354C8.095 34.5354 7.74967 34.6544 7.493 34.8924C7.23167 35.1257 7.101 35.4384 7.101 35.8304C7.101 36.227 7.22933 36.5444 7.486 36.7824C7.74267 37.0157 8.09033 37.1324 8.529 37.1324C8.963 37.1324 9.31067 37.0157 9.572 36.7824C9.82867 36.5444 9.957 36.227 9.957 35.8304ZM6.086 29.5714L9.432 29.5714C9.95 29.5714 10.349 29.7184 10.629 30.0124C10.909 30.3018 11.049 30.6938 11.049 31.1884C11.049 31.7064 10.902 32.1218 10.608 32.4344C10.314 32.7471 9.89633 32.9034 9.355 32.9034L9.355 31.7134C9.56033 31.7134 9.71667 31.6714 9.824 31.5874C9.92667 31.5034 9.978 31.3821 9.978 31.2234C9.978 31.0788 9.93133 30.9668 9.838 30.8874C9.74467 30.8081 9.60933 30.7684 9.432 30.7684L6.086 30.7684L6.086 29.5714ZM7.045 27.4076L8.039 27.4076L8.039 25.8046L8.963 25.8046L8.963 27.4076L10.041 27.4076L10.041 25.5946L11 25.5946L11 28.6046L6.086 28.6046L6.086 25.5946L7.045 25.5946L7.045 27.4076ZM8.536 25.0205C8.05067 25.0205 7.619 24.9155 7.241 24.7055C6.85833 24.4955 6.562 24.2038 6.352 23.8305C6.13733 23.4525 6.03 23.0255 6.03 22.5495C6.03 21.9661 6.184 21.4668 6.492 21.0515C6.8 20.6361 7.22 20.3585 7.752 20.2185L7.752 21.5345C7.54667 21.6325 7.39033 21.7725 7.283 21.9545C7.17567 22.1318 7.122 22.3348 7.122 22.5635C7.122 22.9321 7.25033 23.2308 7.507 23.4595C7.76367 23.6881 8.10667 23.8025 8.536 23.8025C8.96533 23.8025 9.30833 23.6881 9.565 23.4595C9.82167 23.2308 9.95 22.9321 9.95 22.5635C9.95 22.3348 9.89633 22.1318 9.789 21.9545C9.68167 21.7725 9.52533 21.6325 9.32 21.5345L9.32 20.2185C9.852 20.3585 10.272 20.6361 10.58 21.0515C10.8833 21.4668 11.035 21.9661 11.035 22.5495C11.035 23.0255 10.93 23.4525 10.72 23.8305C10.5053 24.2038 10.209 24.4955 9.831 24.7055C9.453 24.9155 9.02133 25.0205 8.536 25.0205ZM6.086 15.9504L7.045 15.9504L7.045 17.2524L11 17.2524L11 18.4494L7.045 18.4494L7.045 19.7514L6.086 19.7514L6.086 15.9504ZM11.049 13.5717C11.049 13.931 10.9907 14.253 10.874 14.5377C10.7573 14.8224 10.5847 15.051 10.356 15.2237C10.1273 15.3917 9.852 15.4804 9.53 15.4897L9.53 14.2157C9.712 14.197 9.852 14.134 9.95 14.0267C10.0433 13.9194 10.09 13.7794 10.09 13.6067C10.09 13.4294 10.0503 13.2894 9.971 13.1867C9.887 13.084 9.77267 13.0327 9.628 13.0327C9.50666 13.0327 9.40633 13.0747 9.327 13.1587C9.24767 13.238 9.18233 13.3384 9.131 13.4597C9.07966 13.5764 9.02133 13.7444 8.956 13.9637C8.858 14.281 8.76 14.54 8.662 14.7407C8.564 14.9414 8.41933 15.114 8.228 15.2587C8.03667 15.4034 7.787 15.4757 7.479 15.4757C7.02167 15.4757 6.66467 15.31 6.408 14.9787C6.14667 14.6474 6.016 14.2157 6.016 13.6837C6.016 13.1424 6.14666 12.706 6.408 12.3747C6.66466 12.0434 7.024 11.866 7.486 11.8427L7.486 13.1377C7.32733 13.147 7.20367 13.2054 7.115 13.3127C7.02166 13.42 6.975 13.5577 6.975 13.7257C6.975 13.8704 7.01466 13.987 7.094 14.0757C7.16866 14.1644 7.27833 14.2087 7.423 14.2087C7.58166 14.2087 7.70533 14.134 7.794 13.9847C7.88267 13.8354 7.97833 13.602 8.081 13.2847C8.18833 12.9674 8.291 12.7107 8.389 12.5147C8.487 12.314 8.62933 12.1414 8.816 11.9967C9.00266 11.852 9.243 11.7797 9.537 11.7797C9.817 11.7797 10.0713 11.852 10.3 11.9967C10.5287 12.1367 10.7107 12.342 10.846 12.6127C10.9813 12.8834 11.049 13.203 11.049 13.5717Z" fill="#DEDFF5"/>
</svg>
