<svg width="595" height="842" viewBox="0 0 595 842" fill="none" xmlns="http://www.w3.org/2000/svg">
<rect width="595" height="842" fill="white"/>
<circle cx="221.5" cy="420.5" r="29.5" fill="white" stroke="black" stroke-width="6"/>
<circle cx="372.5" cy="420.5" r="29.5" fill="white" stroke="black" stroke-width="6"/>
<path d="M236 370L379 370" stroke="black" stroke-width="6"/>
<line x1="341.395" y1="380.656" x2="261.395" y2="422.656" stroke="black" stroke-width="6"/>
<line x1="358" y1="360" x2="358" y2="340" stroke="black" stroke-width="6"/>
<line x1="356" y1="343" x2="385" y2="343" stroke="black" stroke-width="6"/>
<path d="M201.204 468.512C195.156 468.512 191.16 471.464 191.16 476.108C191.16 485.036 204.48 482.372 204.48 486.836C204.48 488.276 203.22 489.032 201.204 489.032C198.576 489.032 194.688 487.52 192.096 485.252L189.612 490.184C192.6 492.632 196.92 494.216 201.132 494.216C206.748 494.216 211.212 491.552 211.212 486.512C211.212 477.404 197.892 479.888 197.892 475.532C197.892 474.308 199.008 473.696 200.664 473.696C202.716 473.696 206.064 474.776 208.728 476.324L211.14 471.32C208.548 469.628 204.84 468.512 201.204 468.512ZM254.864 494H262.532L252.56 479.24L261.92 468.8H254.504L244.856 479.708V468.8H238.448V494H244.856V487.808L248.204 484.1L254.864 494ZM295.511 488.636V468.8H289.103V494H306.203V488.636H295.511ZM352.267 473.948V468.764H330.739V473.948H338.263V494H344.671V473.948H352.267ZM402.031 494V468.8H396.055V484.352L384.427 468.8H378.775V494H384.787V478.484L396.379 494H402.031Z" fill="black"/>
<g filter="url(#filter0_d)">
<path d="M365.833 402.667V422.833H371.333V439.333L384.167 417.333H376.833L382.333 402.667H365.833Z" fill="#F2994A"/>
</g>
<defs>
<filter id="filter0_d" x="351" y="399" width="48" height="50" filterUnits="userSpaceOnUse" color-interpolation-filters="sRGB">
<feFlood flood-opacity="0" result="BackgroundImageFix"/>
<feColorMatrix in="SourceAlpha" type="matrix" values="0 0 0 0 0 0 0 0 0 0 0 0 0 0 0 0 0 0 127 0"/>
<feOffset dy="4"/>
<feGaussianBlur stdDeviation="1"/>
<feColorMatrix type="matrix" values="0 0 0 0 0.0221667 0 0 0 0 0.158333 0 0 0 0 0 0 0 0 0.25 0"/>
<feBlend mode="normal" in2="BackgroundImageFix" result="effect1_dropShadow"/>
<feBlend mode="normal" in="SourceGraphic" in2="effect1_dropShadow" result="shape"/>
</filter>
</defs>
</svg>
